G04 EAGLE Gerber RS-274X export*
G75*
%MOMM*%
%FSLAX34Y34*%
%LPD*%
%INBottom Copper*%
%IPPOS*%
%AMOC8*
5,1,8,0,0,1.08239X$1,22.5*%
G01*
%ADD10C,1.524000*%
%ADD11C,1.500000*%
%ADD12C,0.654800*%
%ADD13C,0.254000*%
%ADD14C,0.508000*%
%ADD15C,0.812800*%
%ADD16C,0.304800*%

G36*
X996718Y2544D02*
X996718Y2544D01*
X996737Y2542D01*
X996839Y2564D01*
X996941Y2580D01*
X996958Y2590D01*
X996978Y2594D01*
X997067Y2647D01*
X997158Y2696D01*
X997172Y2710D01*
X997189Y2720D01*
X997256Y2799D01*
X997328Y2874D01*
X997336Y2892D01*
X997349Y2907D01*
X997388Y3003D01*
X997431Y3097D01*
X997433Y3117D01*
X997441Y3135D01*
X997459Y3302D01*
X997459Y796698D01*
X997456Y796718D01*
X997458Y796737D01*
X997436Y796839D01*
X997420Y796941D01*
X997410Y796958D01*
X997406Y796978D01*
X997353Y797067D01*
X997304Y797158D01*
X997290Y797172D01*
X997280Y797189D01*
X997201Y797256D01*
X997126Y797328D01*
X997108Y797336D01*
X997093Y797349D01*
X996997Y797388D01*
X996903Y797431D01*
X996883Y797433D01*
X996865Y797441D01*
X996698Y797459D01*
X3302Y797459D01*
X3282Y797456D01*
X3263Y797458D01*
X3161Y797436D01*
X3059Y797420D01*
X3042Y797410D01*
X3022Y797406D01*
X2933Y797353D01*
X2842Y797304D01*
X2828Y797290D01*
X2811Y797280D01*
X2744Y797201D01*
X2672Y797126D01*
X2664Y797108D01*
X2651Y797093D01*
X2612Y796997D01*
X2569Y796903D01*
X2567Y796883D01*
X2559Y796865D01*
X2541Y796698D01*
X2541Y3302D01*
X2544Y3282D01*
X2542Y3263D01*
X2564Y3161D01*
X2580Y3059D01*
X2590Y3042D01*
X2594Y3022D01*
X2647Y2933D01*
X2696Y2842D01*
X2710Y2828D01*
X2720Y2811D01*
X2799Y2744D01*
X2874Y2672D01*
X2892Y2664D01*
X2907Y2651D01*
X3003Y2612D01*
X3097Y2569D01*
X3117Y2567D01*
X3135Y2559D01*
X3302Y2541D01*
X996698Y2541D01*
X996718Y2544D01*
G37*
%LPC*%
G36*
X714461Y9905D02*
X714461Y9905D01*
X711100Y11297D01*
X708527Y13870D01*
X707135Y17231D01*
X707135Y36109D01*
X708527Y39470D01*
X711100Y42043D01*
X714461Y43435D01*
X718099Y43435D01*
X721460Y42043D01*
X724042Y39461D01*
X724058Y39449D01*
X724070Y39434D01*
X724158Y39377D01*
X724242Y39317D01*
X724261Y39311D01*
X724277Y39301D01*
X724378Y39275D01*
X724477Y39245D01*
X724497Y39245D01*
X724516Y39241D01*
X724619Y39249D01*
X724723Y39251D01*
X724741Y39258D01*
X724761Y39260D01*
X724856Y39300D01*
X724954Y39336D01*
X724969Y39348D01*
X724987Y39356D01*
X725118Y39461D01*
X896142Y210485D01*
X896195Y210559D01*
X896255Y210628D01*
X896267Y210658D01*
X896286Y210684D01*
X896313Y210771D01*
X896347Y210856D01*
X896351Y210897D01*
X896358Y210919D01*
X896357Y210952D01*
X896365Y211023D01*
X896365Y225347D01*
X896354Y225418D01*
X896352Y225489D01*
X896334Y225538D01*
X896326Y225590D01*
X896292Y225653D01*
X896267Y225720D01*
X896235Y225761D01*
X896210Y225807D01*
X896158Y225857D01*
X896114Y225913D01*
X896070Y225941D01*
X896032Y225977D01*
X895967Y226007D01*
X895907Y226046D01*
X895856Y226058D01*
X895809Y226080D01*
X895738Y226088D01*
X895668Y226106D01*
X895616Y226102D01*
X895565Y226107D01*
X895494Y226092D01*
X895423Y226086D01*
X895375Y226066D01*
X895324Y226055D01*
X895263Y226018D01*
X895197Y225990D01*
X895141Y225945D01*
X895113Y225929D01*
X895098Y225911D01*
X895066Y225885D01*
X893528Y224347D01*
X889552Y224347D01*
X887799Y226100D01*
X887725Y226153D01*
X887656Y226213D01*
X887626Y226225D01*
X887600Y226244D01*
X887513Y226271D01*
X887428Y226305D01*
X887387Y226309D01*
X887364Y226316D01*
X887332Y226315D01*
X887261Y226323D01*
X825277Y226323D01*
X825187Y226309D01*
X825096Y226301D01*
X825067Y226289D01*
X825035Y226284D01*
X824954Y226241D01*
X824870Y226205D01*
X824838Y226179D01*
X824817Y226168D01*
X824795Y226145D01*
X824739Y226100D01*
X822958Y224319D01*
X818983Y224319D01*
X816172Y227130D01*
X816172Y231106D01*
X818983Y233917D01*
X822958Y233917D01*
X824739Y232136D01*
X824813Y232083D01*
X824882Y232023D01*
X824913Y232011D01*
X824939Y231992D01*
X825026Y231965D01*
X825111Y231931D01*
X825152Y231927D01*
X825174Y231920D01*
X825206Y231921D01*
X825277Y231913D01*
X887205Y231913D01*
X887295Y231927D01*
X887386Y231935D01*
X887416Y231947D01*
X887448Y231952D01*
X887528Y231995D01*
X887612Y232031D01*
X887644Y232057D01*
X887665Y232068D01*
X887687Y232091D01*
X887743Y232136D01*
X889657Y234050D01*
X889669Y234066D01*
X889684Y234078D01*
X889741Y234166D01*
X889801Y234249D01*
X889807Y234268D01*
X889817Y234285D01*
X889843Y234386D01*
X889873Y234485D01*
X889873Y234504D01*
X889878Y234524D01*
X889870Y234627D01*
X889867Y234730D01*
X889860Y234749D01*
X889858Y234769D01*
X889818Y234864D01*
X889782Y234961D01*
X889770Y234977D01*
X889762Y234995D01*
X889657Y235126D01*
X887771Y237012D01*
X887697Y237065D01*
X887628Y237125D01*
X887598Y237137D01*
X887572Y237156D01*
X887484Y237183D01*
X887400Y237217D01*
X887359Y237221D01*
X887336Y237228D01*
X887304Y237227D01*
X887233Y237235D01*
X759940Y237235D01*
X759920Y237232D01*
X759901Y237234D01*
X759799Y237212D01*
X759697Y237196D01*
X759680Y237186D01*
X759660Y237182D01*
X759571Y237129D01*
X759480Y237080D01*
X759466Y237066D01*
X759449Y237056D01*
X759382Y236977D01*
X759348Y236941D01*
X756368Y233961D01*
X752392Y233961D01*
X749581Y236772D01*
X749581Y240748D01*
X749633Y240800D01*
X749675Y240858D01*
X749725Y240910D01*
X749746Y240957D01*
X749777Y240999D01*
X749798Y241068D01*
X749828Y241133D01*
X749834Y241185D01*
X749849Y241235D01*
X749847Y241306D01*
X749855Y241377D01*
X749844Y241428D01*
X749843Y241480D01*
X749818Y241548D01*
X749803Y241618D01*
X749776Y241663D01*
X749758Y241711D01*
X749714Y241767D01*
X749677Y241829D01*
X749637Y241863D01*
X749605Y241903D01*
X749544Y241942D01*
X749490Y241989D01*
X749442Y242008D01*
X749398Y242036D01*
X749328Y242054D01*
X749262Y242081D01*
X749191Y242089D01*
X749159Y242097D01*
X749136Y242095D01*
X749095Y242099D01*
X746934Y242099D01*
X744123Y244910D01*
X744123Y248886D01*
X745143Y249906D01*
X745185Y249964D01*
X745234Y250016D01*
X745256Y250063D01*
X745287Y250105D01*
X745308Y250174D01*
X745338Y250239D01*
X745344Y250291D01*
X745359Y250341D01*
X745357Y250412D01*
X745365Y250483D01*
X745354Y250534D01*
X745353Y250586D01*
X745328Y250654D01*
X745313Y250724D01*
X745286Y250769D01*
X745268Y250817D01*
X745223Y250873D01*
X745187Y250935D01*
X745147Y250969D01*
X745114Y251009D01*
X745054Y251048D01*
X745000Y251095D01*
X744951Y251114D01*
X744908Y251142D01*
X744838Y251160D01*
X744772Y251187D01*
X744700Y251195D01*
X744669Y251203D01*
X744646Y251201D01*
X744605Y251205D01*
X632663Y251205D01*
X632573Y251191D01*
X632482Y251183D01*
X632452Y251171D01*
X632420Y251166D01*
X632340Y251123D01*
X632256Y251087D01*
X632224Y251061D01*
X632203Y251050D01*
X632181Y251027D01*
X632125Y250982D01*
X626588Y245445D01*
X626535Y245371D01*
X626475Y245302D01*
X626463Y245272D01*
X626444Y245246D01*
X626417Y245159D01*
X626383Y245074D01*
X626379Y245033D01*
X626372Y245011D01*
X626373Y244978D01*
X626365Y244907D01*
X626365Y190489D01*
X626376Y190418D01*
X626378Y190347D01*
X626396Y190298D01*
X626404Y190246D01*
X626438Y190183D01*
X626463Y190116D01*
X626495Y190075D01*
X626520Y190029D01*
X626572Y189979D01*
X626616Y189923D01*
X626660Y189895D01*
X626698Y189859D01*
X626763Y189829D01*
X626823Y189790D01*
X626874Y189778D01*
X626921Y189756D01*
X626992Y189748D01*
X627062Y189730D01*
X627114Y189734D01*
X627165Y189729D01*
X627236Y189744D01*
X627307Y189750D01*
X627355Y189770D01*
X627406Y189781D01*
X627467Y189818D01*
X627533Y189846D01*
X627589Y189891D01*
X627617Y189907D01*
X627632Y189925D01*
X627664Y189951D01*
X630472Y192759D01*
X634448Y192759D01*
X634959Y192248D01*
X635033Y192195D01*
X635102Y192135D01*
X635132Y192123D01*
X635158Y192104D01*
X635245Y192077D01*
X635330Y192043D01*
X635371Y192039D01*
X635394Y192032D01*
X635426Y192033D01*
X635497Y192025D01*
X852711Y192025D01*
X852801Y192039D01*
X852892Y192047D01*
X852922Y192059D01*
X852954Y192064D01*
X853034Y192107D01*
X853118Y192143D01*
X853150Y192169D01*
X853171Y192180D01*
X853193Y192203D01*
X853249Y192248D01*
X855502Y194501D01*
X855555Y194575D01*
X855615Y194644D01*
X855627Y194674D01*
X855646Y194700D01*
X855673Y194787D01*
X855707Y194872D01*
X855711Y194913D01*
X855718Y194936D01*
X855717Y194968D01*
X855725Y195039D01*
X855725Y198893D01*
X855711Y198983D01*
X855703Y199074D01*
X855691Y199104D01*
X855686Y199136D01*
X855643Y199216D01*
X855607Y199300D01*
X855581Y199332D01*
X855570Y199353D01*
X855547Y199375D01*
X855502Y199431D01*
X855248Y199685D01*
X855232Y199697D01*
X855220Y199712D01*
X855132Y199769D01*
X855049Y199829D01*
X855030Y199835D01*
X855013Y199845D01*
X854912Y199871D01*
X854813Y199901D01*
X854794Y199901D01*
X854774Y199906D01*
X854671Y199898D01*
X854568Y199895D01*
X854549Y199888D01*
X854529Y199886D01*
X854434Y199846D01*
X854337Y199810D01*
X854321Y199798D01*
X854303Y199790D01*
X854172Y199685D01*
X851618Y197131D01*
X850895Y197131D01*
X850805Y197117D01*
X850714Y197109D01*
X850684Y197097D01*
X850652Y197092D01*
X850572Y197049D01*
X850488Y197013D01*
X850456Y196987D01*
X850435Y196976D01*
X850413Y196953D01*
X850357Y196908D01*
X848774Y195325D01*
X645657Y195325D01*
X645567Y195311D01*
X645476Y195303D01*
X645446Y195291D01*
X645414Y195286D01*
X645334Y195243D01*
X645250Y195207D01*
X645218Y195181D01*
X645197Y195170D01*
X645175Y195147D01*
X645119Y195102D01*
X644608Y194591D01*
X640632Y194591D01*
X637821Y197402D01*
X637821Y201378D01*
X640632Y204189D01*
X644608Y204189D01*
X645119Y203678D01*
X645193Y203625D01*
X645262Y203565D01*
X645292Y203553D01*
X645318Y203534D01*
X645405Y203507D01*
X645490Y203473D01*
X645531Y203469D01*
X645554Y203462D01*
X645586Y203463D01*
X645657Y203455D01*
X844070Y203455D01*
X844090Y203458D01*
X844109Y203456D01*
X844211Y203478D01*
X844313Y203494D01*
X844330Y203504D01*
X844350Y203508D01*
X844439Y203561D01*
X844530Y203610D01*
X844544Y203624D01*
X844561Y203634D01*
X844628Y203713D01*
X844662Y203749D01*
X847642Y206729D01*
X851618Y206729D01*
X854172Y204175D01*
X854188Y204163D01*
X854200Y204148D01*
X854288Y204091D01*
X854371Y204031D01*
X854390Y204025D01*
X854407Y204015D01*
X854508Y203989D01*
X854607Y203959D01*
X854626Y203959D01*
X854646Y203954D01*
X854749Y203962D01*
X854852Y203965D01*
X854871Y203972D01*
X854891Y203974D01*
X854986Y204014D01*
X855083Y204050D01*
X855099Y204062D01*
X855117Y204070D01*
X855248Y204175D01*
X857802Y206729D01*
X861778Y206729D01*
X864589Y203918D01*
X864589Y199942D01*
X864078Y199431D01*
X864025Y199357D01*
X863965Y199288D01*
X863953Y199258D01*
X863934Y199232D01*
X863907Y199145D01*
X863873Y199060D01*
X863869Y199019D01*
X863862Y198996D01*
X863863Y198964D01*
X863855Y198893D01*
X863855Y191356D01*
X856394Y183895D01*
X635497Y183895D01*
X635407Y183881D01*
X635316Y183873D01*
X635286Y183861D01*
X635254Y183856D01*
X635174Y183813D01*
X635090Y183777D01*
X635058Y183751D01*
X635037Y183740D01*
X635015Y183717D01*
X634959Y183672D01*
X634448Y183161D01*
X630472Y183161D01*
X627664Y185969D01*
X627606Y186011D01*
X627554Y186061D01*
X627507Y186082D01*
X627465Y186113D01*
X627396Y186134D01*
X627331Y186164D01*
X627279Y186170D01*
X627229Y186185D01*
X627158Y186183D01*
X627087Y186191D01*
X627036Y186180D01*
X626984Y186179D01*
X626916Y186154D01*
X626846Y186139D01*
X626801Y186112D01*
X626753Y186094D01*
X626697Y186050D01*
X626635Y186013D01*
X626601Y185973D01*
X626561Y185941D01*
X626522Y185880D01*
X626475Y185826D01*
X626456Y185778D01*
X626428Y185734D01*
X626410Y185664D01*
X626383Y185598D01*
X626375Y185526D01*
X626367Y185495D01*
X626369Y185472D01*
X626365Y185431D01*
X626365Y183083D01*
X626379Y182993D01*
X626387Y182902D01*
X626399Y182872D01*
X626404Y182840D01*
X626447Y182760D01*
X626483Y182676D01*
X626509Y182644D01*
X626520Y182623D01*
X626543Y182601D01*
X626588Y182545D01*
X662605Y146528D01*
X662679Y146475D01*
X662748Y146415D01*
X662778Y146403D01*
X662804Y146384D01*
X662891Y146357D01*
X662976Y146323D01*
X663017Y146319D01*
X663039Y146312D01*
X663072Y146313D01*
X663143Y146305D01*
X681493Y146305D01*
X681583Y146319D01*
X681674Y146327D01*
X681704Y146339D01*
X681736Y146344D01*
X681816Y146387D01*
X681900Y146423D01*
X681933Y146449D01*
X681953Y146460D01*
X681975Y146483D01*
X682031Y146528D01*
X683812Y148309D01*
X687788Y148309D01*
X690599Y145498D01*
X690599Y141522D01*
X687788Y138711D01*
X683812Y138711D01*
X682031Y140492D01*
X681957Y140545D01*
X681888Y140605D01*
X681858Y140617D01*
X681832Y140636D01*
X681745Y140663D01*
X681660Y140697D01*
X681619Y140701D01*
X681596Y140708D01*
X681564Y140707D01*
X681493Y140715D01*
X660512Y140715D01*
X620775Y180452D01*
X620775Y247538D01*
X628172Y254935D01*
X628225Y255009D01*
X628285Y255078D01*
X628297Y255108D01*
X628316Y255134D01*
X628343Y255221D01*
X628377Y255306D01*
X628381Y255347D01*
X628388Y255369D01*
X628387Y255402D01*
X628395Y255473D01*
X628395Y626646D01*
X628392Y626666D01*
X628394Y626685D01*
X628372Y626787D01*
X628356Y626889D01*
X628346Y626906D01*
X628342Y626926D01*
X628289Y627015D01*
X628240Y627106D01*
X628226Y627120D01*
X628216Y627137D01*
X628137Y627204D01*
X628062Y627276D01*
X628044Y627284D01*
X628029Y627297D01*
X627933Y627336D01*
X627839Y627379D01*
X627819Y627381D01*
X627801Y627389D01*
X627634Y627407D01*
X625817Y627407D01*
X625746Y627396D01*
X625675Y627394D01*
X625626Y627376D01*
X625574Y627368D01*
X625511Y627334D01*
X625444Y627309D01*
X625403Y627277D01*
X625357Y627252D01*
X625307Y627200D01*
X625251Y627156D01*
X625223Y627112D01*
X625187Y627074D01*
X625157Y627009D01*
X625118Y626949D01*
X625106Y626898D01*
X625084Y626851D01*
X625076Y626780D01*
X625058Y626710D01*
X625062Y626658D01*
X625057Y626607D01*
X625072Y626536D01*
X625078Y626465D01*
X625098Y626417D01*
X625109Y626366D01*
X625146Y626305D01*
X625174Y626239D01*
X625219Y626183D01*
X625235Y626155D01*
X625253Y626140D01*
X625279Y626108D01*
X625829Y625558D01*
X625829Y621582D01*
X623018Y618771D01*
X619042Y618771D01*
X617261Y620552D01*
X617187Y620605D01*
X617118Y620665D01*
X617088Y620677D01*
X617062Y620696D01*
X616975Y620723D01*
X616890Y620757D01*
X616849Y620761D01*
X616826Y620768D01*
X616794Y620767D01*
X616723Y620775D01*
X558546Y620775D01*
X558526Y620772D01*
X558507Y620774D01*
X558405Y620752D01*
X558303Y620736D01*
X558286Y620726D01*
X558266Y620722D01*
X558177Y620669D01*
X558086Y620620D01*
X558072Y620606D01*
X558055Y620596D01*
X557988Y620517D01*
X557916Y620442D01*
X557908Y620424D01*
X557895Y620409D01*
X557856Y620313D01*
X557813Y620219D01*
X557811Y620199D01*
X557803Y620181D01*
X557785Y620014D01*
X557785Y609712D01*
X556148Y608075D01*
X507227Y608075D01*
X507137Y608061D01*
X507046Y608053D01*
X507016Y608041D01*
X506984Y608036D01*
X506904Y607993D01*
X506820Y607957D01*
X506788Y607931D01*
X506767Y607920D01*
X506745Y607897D01*
X506689Y607852D01*
X504908Y606071D01*
X500927Y606071D01*
X500888Y606099D01*
X500836Y606149D01*
X500789Y606170D01*
X500747Y606201D01*
X500678Y606222D01*
X500613Y606252D01*
X500561Y606258D01*
X500512Y606273D01*
X500440Y606271D01*
X500369Y606279D01*
X500318Y606268D01*
X500266Y606267D01*
X500198Y606242D01*
X500128Y606227D01*
X500083Y606200D01*
X500035Y606182D01*
X499979Y606138D01*
X499917Y606101D01*
X499883Y606061D01*
X499843Y606029D01*
X499804Y605968D01*
X499757Y605914D01*
X499738Y605866D01*
X499710Y605822D01*
X499692Y605752D01*
X499665Y605686D01*
X499657Y605615D01*
X499649Y605583D01*
X499651Y605560D01*
X499647Y605519D01*
X499647Y585216D01*
X499650Y585196D01*
X499648Y585177D01*
X499670Y585075D01*
X499686Y584973D01*
X499696Y584956D01*
X499700Y584936D01*
X499753Y584847D01*
X499802Y584756D01*
X499816Y584742D01*
X499826Y584725D01*
X499905Y584658D01*
X499980Y584586D01*
X499998Y584578D01*
X500013Y584565D01*
X500109Y584526D01*
X500203Y584483D01*
X500223Y584481D01*
X500241Y584473D01*
X500408Y584455D01*
X572273Y584455D01*
X572363Y584469D01*
X572454Y584477D01*
X572484Y584489D01*
X572516Y584494D01*
X572596Y584537D01*
X572680Y584573D01*
X572712Y584599D01*
X572733Y584610D01*
X572755Y584633D01*
X572811Y584678D01*
X574592Y586459D01*
X578568Y586459D01*
X581379Y583648D01*
X581379Y579672D01*
X579598Y577891D01*
X579545Y577817D01*
X579485Y577748D01*
X579473Y577718D01*
X579454Y577692D01*
X579427Y577605D01*
X579393Y577520D01*
X579389Y577479D01*
X579382Y577456D01*
X579383Y577424D01*
X579375Y577353D01*
X579375Y500877D01*
X579389Y500787D01*
X579397Y500696D01*
X579409Y500666D01*
X579414Y500634D01*
X579457Y500554D01*
X579493Y500470D01*
X579519Y500438D01*
X579530Y500417D01*
X579553Y500395D01*
X579598Y500339D01*
X581379Y498558D01*
X581379Y494582D01*
X578568Y491771D01*
X574592Y491771D01*
X571781Y494582D01*
X571781Y498558D01*
X573562Y500339D01*
X573615Y500413D01*
X573675Y500482D01*
X573687Y500512D01*
X573706Y500538D01*
X573733Y500625D01*
X573767Y500710D01*
X573771Y500751D01*
X573778Y500774D01*
X573777Y500806D01*
X573785Y500877D01*
X573785Y577353D01*
X573771Y577443D01*
X573763Y577534D01*
X573751Y577564D01*
X573746Y577596D01*
X573703Y577676D01*
X573667Y577760D01*
X573641Y577792D01*
X573630Y577813D01*
X573607Y577835D01*
X573562Y577891D01*
X572811Y578642D01*
X572737Y578695D01*
X572668Y578755D01*
X572638Y578767D01*
X572612Y578786D01*
X572525Y578813D01*
X572440Y578847D01*
X572399Y578851D01*
X572376Y578858D01*
X572344Y578857D01*
X572273Y578865D01*
X495694Y578865D01*
X494057Y580502D01*
X494057Y631360D01*
X494873Y632176D01*
X494915Y632234D01*
X494965Y632286D01*
X494987Y632333D01*
X495017Y632375D01*
X495038Y632444D01*
X495068Y632509D01*
X495074Y632561D01*
X495089Y632611D01*
X495087Y632682D01*
X495095Y632753D01*
X495084Y632804D01*
X495083Y632856D01*
X495058Y632924D01*
X495043Y632994D01*
X495016Y633039D01*
X494998Y633087D01*
X494954Y633143D01*
X494917Y633205D01*
X494877Y633239D01*
X494845Y633279D01*
X494784Y633318D01*
X494730Y633365D01*
X494682Y633384D01*
X494638Y633412D01*
X494568Y633430D01*
X494502Y633457D01*
X494431Y633465D01*
X494399Y633473D01*
X494376Y633471D01*
X494335Y633475D01*
X454649Y633475D01*
X454578Y633464D01*
X454507Y633462D01*
X454458Y633444D01*
X454406Y633436D01*
X454343Y633402D01*
X454276Y633377D01*
X454235Y633345D01*
X454189Y633320D01*
X454139Y633268D01*
X454083Y633224D01*
X454055Y633180D01*
X454019Y633142D01*
X453989Y633077D01*
X453950Y633017D01*
X453938Y632966D01*
X453916Y632919D01*
X453908Y632848D01*
X453890Y632778D01*
X453894Y632726D01*
X453889Y632675D01*
X453904Y632604D01*
X453910Y632533D01*
X453930Y632485D01*
X453941Y632434D01*
X453978Y632373D01*
X454006Y632307D01*
X454051Y632251D01*
X454067Y632223D01*
X454085Y632208D01*
X454111Y632176D01*
X455649Y630638D01*
X455649Y626662D01*
X453868Y624881D01*
X453815Y624807D01*
X453755Y624738D01*
X453743Y624708D01*
X453724Y624682D01*
X453697Y624595D01*
X453663Y624510D01*
X453659Y624469D01*
X453652Y624446D01*
X453653Y624414D01*
X453645Y624343D01*
X453645Y577077D01*
X453659Y576987D01*
X453667Y576896D01*
X453679Y576866D01*
X453684Y576834D01*
X453727Y576754D01*
X453763Y576670D01*
X453789Y576638D01*
X453800Y576617D01*
X453823Y576595D01*
X453868Y576539D01*
X455649Y574758D01*
X455649Y570782D01*
X452838Y567971D01*
X448862Y567971D01*
X446051Y570782D01*
X446051Y574758D01*
X447832Y576539D01*
X447885Y576613D01*
X447945Y576682D01*
X447957Y576712D01*
X447976Y576738D01*
X448003Y576825D01*
X448037Y576910D01*
X448041Y576951D01*
X448048Y576974D01*
X448047Y577006D01*
X448055Y577077D01*
X448055Y624343D01*
X448041Y624433D01*
X448033Y624524D01*
X448021Y624554D01*
X448016Y624586D01*
X447973Y624666D01*
X447937Y624750D01*
X447911Y624782D01*
X447900Y624803D01*
X447877Y624825D01*
X447832Y624881D01*
X446051Y626662D01*
X446051Y630638D01*
X447589Y632176D01*
X447631Y632234D01*
X447681Y632286D01*
X447702Y632333D01*
X447733Y632375D01*
X447754Y632444D01*
X447784Y632509D01*
X447790Y632561D01*
X447805Y632611D01*
X447803Y632682D01*
X447811Y632753D01*
X447800Y632804D01*
X447799Y632856D01*
X447774Y632924D01*
X447759Y632994D01*
X447732Y633039D01*
X447714Y633087D01*
X447670Y633143D01*
X447633Y633205D01*
X447593Y633239D01*
X447561Y633279D01*
X447500Y633318D01*
X447446Y633365D01*
X447398Y633384D01*
X447354Y633412D01*
X447284Y633430D01*
X447218Y633457D01*
X447146Y633465D01*
X447115Y633473D01*
X447092Y633471D01*
X447051Y633475D01*
X417057Y633475D01*
X416967Y633461D01*
X416876Y633453D01*
X416846Y633441D01*
X416814Y633436D01*
X416734Y633393D01*
X416650Y633357D01*
X416618Y633331D01*
X416597Y633320D01*
X416575Y633297D01*
X416519Y633252D01*
X414738Y631471D01*
X410762Y631471D01*
X407951Y634282D01*
X407951Y638263D01*
X407979Y638302D01*
X408029Y638354D01*
X408050Y638401D01*
X408081Y638443D01*
X408102Y638512D01*
X408132Y638577D01*
X408138Y638629D01*
X408153Y638678D01*
X408151Y638750D01*
X408159Y638821D01*
X408148Y638872D01*
X408147Y638924D01*
X408122Y638992D01*
X408107Y639062D01*
X408080Y639107D01*
X408062Y639155D01*
X408018Y639211D01*
X407981Y639273D01*
X407941Y639307D01*
X407909Y639347D01*
X407848Y639386D01*
X407794Y639433D01*
X407746Y639452D01*
X407702Y639480D01*
X407632Y639498D01*
X407566Y639525D01*
X407495Y639533D01*
X407463Y639541D01*
X407440Y639539D01*
X407399Y639543D01*
X405524Y639543D01*
X403887Y641180D01*
X403887Y694296D01*
X405524Y695933D01*
X496824Y695933D01*
X496844Y695936D01*
X496863Y695934D01*
X496965Y695956D01*
X497067Y695972D01*
X497084Y695982D01*
X497104Y695986D01*
X497193Y696039D01*
X497284Y696088D01*
X497298Y696102D01*
X497315Y696112D01*
X497382Y696191D01*
X497454Y696266D01*
X497462Y696284D01*
X497475Y696299D01*
X497514Y696395D01*
X497557Y696489D01*
X497559Y696509D01*
X497567Y696527D01*
X497585Y696694D01*
X497585Y725943D01*
X497571Y726033D01*
X497563Y726124D01*
X497551Y726154D01*
X497546Y726186D01*
X497503Y726266D01*
X497467Y726350D01*
X497441Y726382D01*
X497430Y726403D01*
X497407Y726425D01*
X497362Y726481D01*
X495581Y728262D01*
X495581Y732238D01*
X498392Y735049D01*
X502368Y735049D01*
X505179Y732238D01*
X505179Y728262D01*
X503398Y726481D01*
X503345Y726407D01*
X503285Y726338D01*
X503273Y726308D01*
X503254Y726282D01*
X503227Y726195D01*
X503193Y726110D01*
X503189Y726069D01*
X503182Y726046D01*
X503183Y726014D01*
X503175Y725943D01*
X503175Y691980D01*
X502359Y691164D01*
X502317Y691106D01*
X502267Y691054D01*
X502245Y691007D01*
X502215Y690965D01*
X502194Y690896D01*
X502164Y690831D01*
X502158Y690779D01*
X502143Y690729D01*
X502145Y690658D01*
X502137Y690587D01*
X502148Y690536D01*
X502149Y690484D01*
X502174Y690416D01*
X502189Y690346D01*
X502216Y690301D01*
X502234Y690253D01*
X502278Y690197D01*
X502315Y690135D01*
X502355Y690101D01*
X502387Y690061D01*
X502448Y690022D01*
X502502Y689975D01*
X502550Y689956D01*
X502594Y689928D01*
X502664Y689910D01*
X502730Y689883D01*
X502801Y689875D01*
X502833Y689867D01*
X502856Y689869D01*
X502897Y689865D01*
X617993Y689865D01*
X618083Y689879D01*
X618174Y689887D01*
X618204Y689899D01*
X618236Y689904D01*
X618316Y689947D01*
X618400Y689983D01*
X618432Y690009D01*
X618453Y690020D01*
X618475Y690043D01*
X618531Y690088D01*
X619042Y690599D01*
X623018Y690599D01*
X625829Y687788D01*
X625829Y683812D01*
X623275Y681258D01*
X623263Y681242D01*
X623248Y681230D01*
X623191Y681142D01*
X623131Y681059D01*
X623125Y681040D01*
X623115Y681023D01*
X623089Y680922D01*
X623059Y680823D01*
X623059Y680804D01*
X623054Y680784D01*
X623062Y680681D01*
X623065Y680578D01*
X623072Y680559D01*
X623074Y680539D01*
X623114Y680444D01*
X623150Y680347D01*
X623162Y680331D01*
X623170Y680313D01*
X623275Y680182D01*
X625829Y677628D01*
X625829Y673652D01*
X623018Y670841D01*
X619042Y670841D01*
X617261Y672622D01*
X617187Y672675D01*
X617118Y672735D01*
X617088Y672747D01*
X617062Y672766D01*
X616975Y672793D01*
X616890Y672827D01*
X616849Y672831D01*
X616826Y672838D01*
X616794Y672837D01*
X616723Y672845D01*
X418310Y672845D01*
X418290Y672842D01*
X418271Y672844D01*
X418169Y672822D01*
X418067Y672806D01*
X418050Y672796D01*
X418030Y672792D01*
X417941Y672739D01*
X417850Y672690D01*
X417836Y672676D01*
X417819Y672666D01*
X417752Y672587D01*
X417718Y672551D01*
X414738Y669571D01*
X410757Y669571D01*
X410718Y669599D01*
X410666Y669649D01*
X410619Y669670D01*
X410577Y669701D01*
X410508Y669722D01*
X410443Y669752D01*
X410391Y669758D01*
X410342Y669773D01*
X410270Y669771D01*
X410199Y669779D01*
X410148Y669768D01*
X410096Y669767D01*
X410028Y669742D01*
X409958Y669727D01*
X409913Y669700D01*
X409865Y669682D01*
X409809Y669638D01*
X409747Y669601D01*
X409713Y669561D01*
X409673Y669529D01*
X409634Y669468D01*
X409587Y669414D01*
X409568Y669366D01*
X409540Y669322D01*
X409522Y669252D01*
X409495Y669186D01*
X409487Y669115D01*
X409479Y669083D01*
X409481Y669060D01*
X409477Y669019D01*
X409477Y667021D01*
X409488Y666950D01*
X409490Y666878D01*
X409508Y666829D01*
X409516Y666778D01*
X409550Y666715D01*
X409575Y666647D01*
X409607Y666607D01*
X409632Y666561D01*
X409683Y666512D01*
X409728Y666455D01*
X409772Y666427D01*
X409810Y666391D01*
X409875Y666361D01*
X409935Y666322D01*
X409986Y666310D01*
X410033Y666288D01*
X410104Y666280D01*
X410174Y666262D01*
X410226Y666266D01*
X410277Y666261D01*
X410348Y666276D01*
X410419Y666282D01*
X410467Y666302D01*
X410518Y666313D01*
X410579Y666350D01*
X410645Y666378D01*
X410701Y666423D01*
X410729Y666439D01*
X410744Y666457D01*
X410759Y666469D01*
X414738Y666469D01*
X415249Y665958D01*
X415323Y665905D01*
X415392Y665845D01*
X415422Y665833D01*
X415448Y665814D01*
X415535Y665787D01*
X415620Y665753D01*
X415661Y665749D01*
X415684Y665742D01*
X415716Y665743D01*
X415787Y665735D01*
X616723Y665735D01*
X616813Y665749D01*
X616904Y665757D01*
X616934Y665769D01*
X616966Y665774D01*
X617046Y665817D01*
X617130Y665853D01*
X617162Y665879D01*
X617183Y665890D01*
X617205Y665913D01*
X617261Y665958D01*
X619042Y667739D01*
X623018Y667739D01*
X625829Y664928D01*
X625829Y660952D01*
X623018Y658141D01*
X619042Y658141D01*
X617261Y659922D01*
X617187Y659975D01*
X617118Y660035D01*
X617088Y660047D01*
X617062Y660066D01*
X616975Y660093D01*
X616890Y660127D01*
X616849Y660131D01*
X616826Y660138D01*
X616794Y660137D01*
X616723Y660145D01*
X418310Y660145D01*
X418290Y660142D01*
X418271Y660144D01*
X418169Y660122D01*
X418067Y660106D01*
X418050Y660096D01*
X418030Y660092D01*
X417941Y660039D01*
X417850Y659990D01*
X417836Y659976D01*
X417819Y659966D01*
X417752Y659887D01*
X417718Y659851D01*
X414738Y656871D01*
X410757Y656871D01*
X410718Y656899D01*
X410666Y656949D01*
X410619Y656970D01*
X410577Y657001D01*
X410508Y657022D01*
X410443Y657052D01*
X410391Y657058D01*
X410342Y657073D01*
X410270Y657071D01*
X410199Y657079D01*
X410148Y657068D01*
X410096Y657067D01*
X410028Y657042D01*
X409958Y657027D01*
X409913Y657000D01*
X409865Y656982D01*
X409809Y656938D01*
X409747Y656901D01*
X409713Y656861D01*
X409673Y656829D01*
X409634Y656768D01*
X409587Y656714D01*
X409568Y656666D01*
X409540Y656622D01*
X409522Y656552D01*
X409495Y656486D01*
X409487Y656415D01*
X409479Y656383D01*
X409481Y656360D01*
X409477Y656319D01*
X409477Y654321D01*
X409488Y654250D01*
X409490Y654178D01*
X409508Y654129D01*
X409516Y654078D01*
X409550Y654015D01*
X409575Y653947D01*
X409607Y653907D01*
X409632Y653861D01*
X409683Y653812D01*
X409728Y653755D01*
X409772Y653727D01*
X409810Y653691D01*
X409875Y653661D01*
X409935Y653622D01*
X409986Y653610D01*
X410033Y653588D01*
X410104Y653580D01*
X410174Y653562D01*
X410226Y653566D01*
X410277Y653561D01*
X410348Y653576D01*
X410419Y653582D01*
X410467Y653602D01*
X410518Y653613D01*
X410579Y653650D01*
X410645Y653678D01*
X410701Y653723D01*
X410729Y653739D01*
X410744Y653757D01*
X410759Y653769D01*
X414738Y653769D01*
X415249Y653258D01*
X415323Y653205D01*
X415392Y653145D01*
X415422Y653133D01*
X415448Y653114D01*
X415535Y653087D01*
X415620Y653053D01*
X415661Y653049D01*
X415684Y653042D01*
X415716Y653043D01*
X415787Y653035D01*
X616723Y653035D01*
X616813Y653049D01*
X616904Y653057D01*
X616934Y653069D01*
X616966Y653074D01*
X617046Y653117D01*
X617130Y653153D01*
X617162Y653179D01*
X617183Y653190D01*
X617205Y653213D01*
X617261Y653258D01*
X619042Y655039D01*
X623018Y655039D01*
X625829Y652228D01*
X625829Y648252D01*
X624009Y646432D01*
X623967Y646374D01*
X623917Y646322D01*
X623896Y646275D01*
X623865Y646233D01*
X623844Y646164D01*
X623814Y646099D01*
X623808Y646047D01*
X623793Y645997D01*
X623795Y645926D01*
X623787Y645855D01*
X623798Y645804D01*
X623799Y645752D01*
X623824Y645684D01*
X623839Y645614D01*
X623866Y645569D01*
X623884Y645521D01*
X623928Y645465D01*
X623965Y645403D01*
X624005Y645369D01*
X624037Y645329D01*
X624098Y645290D01*
X624152Y645243D01*
X624200Y645224D01*
X624244Y645196D01*
X624314Y645178D01*
X624380Y645151D01*
X624452Y645143D01*
X624483Y645135D01*
X624506Y645137D01*
X624547Y645133D01*
X627634Y645133D01*
X627654Y645136D01*
X627673Y645134D01*
X627775Y645156D01*
X627877Y645172D01*
X627894Y645182D01*
X627914Y645186D01*
X628003Y645239D01*
X628094Y645288D01*
X628108Y645302D01*
X628125Y645312D01*
X628192Y645391D01*
X628264Y645466D01*
X628272Y645484D01*
X628285Y645499D01*
X628324Y645595D01*
X628367Y645689D01*
X628369Y645709D01*
X628377Y645727D01*
X628395Y645894D01*
X628395Y707278D01*
X682102Y760985D01*
X717053Y760985D01*
X717143Y760999D01*
X717234Y761007D01*
X717264Y761019D01*
X717296Y761024D01*
X717376Y761067D01*
X717460Y761103D01*
X717492Y761129D01*
X717513Y761140D01*
X717535Y761163D01*
X717591Y761208D01*
X719372Y762989D01*
X723348Y762989D01*
X726159Y760178D01*
X726159Y756202D01*
X723348Y753391D01*
X719372Y753391D01*
X717591Y755172D01*
X717517Y755225D01*
X717448Y755285D01*
X717418Y755297D01*
X717392Y755316D01*
X717305Y755343D01*
X717220Y755377D01*
X717179Y755381D01*
X717156Y755388D01*
X717124Y755387D01*
X717053Y755395D01*
X684733Y755395D01*
X684643Y755381D01*
X684552Y755373D01*
X684522Y755361D01*
X684490Y755356D01*
X684410Y755313D01*
X684326Y755277D01*
X684294Y755251D01*
X684273Y755240D01*
X684251Y755217D01*
X684195Y755172D01*
X634208Y705185D01*
X634155Y705111D01*
X634095Y705042D01*
X634083Y705012D01*
X634064Y704986D01*
X634037Y704899D01*
X634003Y704814D01*
X633999Y704773D01*
X633992Y704751D01*
X633993Y704718D01*
X633985Y704647D01*
X633985Y444246D01*
X633988Y444226D01*
X633986Y444207D01*
X634008Y444105D01*
X634024Y444003D01*
X634034Y443986D01*
X634038Y443966D01*
X634091Y443877D01*
X634140Y443786D01*
X634154Y443772D01*
X634164Y443755D01*
X634243Y443688D01*
X634318Y443616D01*
X634336Y443608D01*
X634351Y443595D01*
X634447Y443556D01*
X634541Y443513D01*
X634561Y443511D01*
X634579Y443503D01*
X634746Y443485D01*
X728991Y443485D01*
X729062Y443496D01*
X729133Y443498D01*
X729182Y443516D01*
X729234Y443524D01*
X729297Y443558D01*
X729364Y443583D01*
X729405Y443615D01*
X729451Y443640D01*
X729501Y443692D01*
X729557Y443736D01*
X729585Y443780D01*
X729621Y443818D01*
X729651Y443883D01*
X729690Y443943D01*
X729702Y443994D01*
X729724Y444041D01*
X729732Y444112D01*
X729750Y444182D01*
X729746Y444234D01*
X729751Y444285D01*
X729736Y444356D01*
X729730Y444427D01*
X729710Y444475D01*
X729699Y444526D01*
X729662Y444587D01*
X729634Y444653D01*
X729589Y444709D01*
X729573Y444737D01*
X729555Y444752D01*
X729529Y444784D01*
X727991Y446322D01*
X727991Y450298D01*
X729772Y452079D01*
X729825Y452153D01*
X729885Y452222D01*
X729897Y452252D01*
X729916Y452278D01*
X729943Y452365D01*
X729977Y452450D01*
X729981Y452491D01*
X729988Y452514D01*
X729987Y452546D01*
X729995Y452617D01*
X729995Y522743D01*
X729981Y522833D01*
X729973Y522924D01*
X729961Y522954D01*
X729956Y522986D01*
X729913Y523066D01*
X729877Y523150D01*
X729851Y523182D01*
X729840Y523203D01*
X729817Y523225D01*
X729772Y523281D01*
X727991Y525062D01*
X727991Y529038D01*
X730802Y531849D01*
X734778Y531849D01*
X737589Y529038D01*
X737589Y525062D01*
X735808Y523281D01*
X735755Y523207D01*
X735695Y523138D01*
X735683Y523108D01*
X735664Y523082D01*
X735637Y522995D01*
X735603Y522910D01*
X735599Y522869D01*
X735592Y522846D01*
X735593Y522814D01*
X735585Y522743D01*
X735585Y452617D01*
X735599Y452527D01*
X735607Y452436D01*
X735619Y452406D01*
X735624Y452374D01*
X735667Y452294D01*
X735703Y452210D01*
X735729Y452178D01*
X735740Y452157D01*
X735763Y452135D01*
X735808Y452079D01*
X737589Y450298D01*
X737589Y446322D01*
X736051Y444784D01*
X736009Y444726D01*
X735959Y444674D01*
X735938Y444627D01*
X735907Y444585D01*
X735886Y444516D01*
X735856Y444451D01*
X735850Y444399D01*
X735835Y444349D01*
X735837Y444278D01*
X735829Y444207D01*
X735840Y444156D01*
X735841Y444104D01*
X735866Y444036D01*
X735881Y443966D01*
X735908Y443921D01*
X735926Y443873D01*
X735970Y443817D01*
X736007Y443755D01*
X736047Y443721D01*
X736079Y443681D01*
X736140Y443642D01*
X736194Y443595D01*
X736242Y443576D01*
X736286Y443548D01*
X736356Y443530D01*
X736422Y443503D01*
X736494Y443495D01*
X736525Y443487D01*
X736548Y443489D01*
X736589Y443485D01*
X775767Y443485D01*
X775857Y443499D01*
X775948Y443507D01*
X775978Y443519D01*
X776010Y443524D01*
X776090Y443567D01*
X776174Y443603D01*
X776206Y443629D01*
X776227Y443640D01*
X776249Y443663D01*
X776305Y443708D01*
X779838Y447241D01*
X779891Y447315D01*
X779951Y447384D01*
X779963Y447414D01*
X779982Y447440D01*
X780009Y447527D01*
X780043Y447612D01*
X780047Y447653D01*
X780054Y447675D01*
X780053Y447708D01*
X780061Y447779D01*
X780061Y450298D01*
X782872Y453109D01*
X786848Y453109D01*
X788386Y451571D01*
X788444Y451529D01*
X788496Y451479D01*
X788543Y451458D01*
X788585Y451427D01*
X788654Y451406D01*
X788719Y451376D01*
X788771Y451370D01*
X788821Y451355D01*
X788892Y451357D01*
X788963Y451349D01*
X789014Y451360D01*
X789066Y451361D01*
X789134Y451386D01*
X789204Y451401D01*
X789249Y451428D01*
X789297Y451446D01*
X789353Y451490D01*
X789415Y451527D01*
X789449Y451567D01*
X789489Y451599D01*
X789528Y451660D01*
X789575Y451714D01*
X789594Y451762D01*
X789622Y451806D01*
X789640Y451876D01*
X789667Y451942D01*
X789675Y452014D01*
X789683Y452045D01*
X789681Y452068D01*
X789685Y452109D01*
X789685Y523037D01*
X789671Y523127D01*
X789663Y523218D01*
X789651Y523248D01*
X789646Y523280D01*
X789603Y523360D01*
X789567Y523444D01*
X789541Y523476D01*
X789530Y523497D01*
X789507Y523519D01*
X789462Y523575D01*
X788469Y524568D01*
X788395Y524621D01*
X788326Y524681D01*
X788296Y524693D01*
X788270Y524712D01*
X788183Y524739D01*
X788098Y524773D01*
X788057Y524777D01*
X788035Y524784D01*
X788002Y524783D01*
X787931Y524791D01*
X785412Y524791D01*
X782601Y527602D01*
X782601Y531578D01*
X785412Y534389D01*
X789388Y534389D01*
X792199Y531578D01*
X792199Y529059D01*
X792213Y528969D01*
X792221Y528878D01*
X792233Y528848D01*
X792238Y528816D01*
X792281Y528736D01*
X792317Y528652D01*
X792343Y528620D01*
X792354Y528599D01*
X792377Y528577D01*
X792422Y528521D01*
X795275Y525668D01*
X795275Y428487D01*
X795289Y428397D01*
X795297Y428306D01*
X795309Y428276D01*
X795314Y428244D01*
X795357Y428164D01*
X795393Y428080D01*
X795419Y428048D01*
X795430Y428027D01*
X795453Y428005D01*
X795498Y427949D01*
X797279Y426168D01*
X797279Y422192D01*
X794468Y419381D01*
X790492Y419381D01*
X787681Y422192D01*
X787681Y426168D01*
X789462Y427949D01*
X789515Y428023D01*
X789575Y428092D01*
X789587Y428122D01*
X789606Y428148D01*
X789633Y428235D01*
X789667Y428320D01*
X789671Y428361D01*
X789678Y428384D01*
X789677Y428416D01*
X789685Y428487D01*
X789685Y444511D01*
X789674Y444582D01*
X789672Y444653D01*
X789654Y444702D01*
X789646Y444754D01*
X789612Y444817D01*
X789587Y444884D01*
X789555Y444925D01*
X789530Y444971D01*
X789478Y445021D01*
X789434Y445077D01*
X789390Y445105D01*
X789352Y445141D01*
X789287Y445171D01*
X789227Y445210D01*
X789176Y445222D01*
X789129Y445244D01*
X789058Y445252D01*
X788988Y445270D01*
X788936Y445266D01*
X788885Y445271D01*
X788814Y445256D01*
X788743Y445250D01*
X788695Y445230D01*
X788644Y445219D01*
X788583Y445182D01*
X788517Y445154D01*
X788461Y445109D01*
X788433Y445093D01*
X788418Y445075D01*
X788386Y445049D01*
X786848Y443511D01*
X784329Y443511D01*
X784239Y443497D01*
X784148Y443489D01*
X784118Y443477D01*
X784086Y443472D01*
X784006Y443429D01*
X783922Y443393D01*
X783890Y443367D01*
X783869Y443356D01*
X783847Y443333D01*
X783791Y443288D01*
X778398Y437895D01*
X634746Y437895D01*
X634726Y437892D01*
X634707Y437894D01*
X634605Y437872D01*
X634503Y437856D01*
X634486Y437846D01*
X634466Y437842D01*
X634377Y437789D01*
X634286Y437740D01*
X634272Y437726D01*
X634255Y437716D01*
X634188Y437637D01*
X634116Y437562D01*
X634108Y437544D01*
X634095Y437529D01*
X634056Y437433D01*
X634013Y437339D01*
X634011Y437319D01*
X634003Y437301D01*
X633985Y437134D01*
X633985Y350266D01*
X633988Y350246D01*
X633986Y350227D01*
X634008Y350125D01*
X634024Y350023D01*
X634034Y350006D01*
X634038Y349986D01*
X634091Y349897D01*
X634140Y349806D01*
X634154Y349792D01*
X634164Y349775D01*
X634243Y349708D01*
X634318Y349636D01*
X634336Y349628D01*
X634351Y349615D01*
X634447Y349576D01*
X634541Y349533D01*
X634561Y349531D01*
X634579Y349523D01*
X634746Y349505D01*
X674381Y349505D01*
X674452Y349516D01*
X674523Y349518D01*
X674572Y349536D01*
X674624Y349544D01*
X674687Y349578D01*
X674754Y349603D01*
X674795Y349635D01*
X674841Y349660D01*
X674891Y349712D01*
X674947Y349756D01*
X674975Y349800D01*
X675011Y349838D01*
X675041Y349903D01*
X675080Y349963D01*
X675092Y350014D01*
X675114Y350061D01*
X675122Y350132D01*
X675140Y350202D01*
X675136Y350254D01*
X675141Y350305D01*
X675126Y350376D01*
X675120Y350447D01*
X675100Y350495D01*
X675089Y350546D01*
X675052Y350607D01*
X675024Y350673D01*
X674979Y350729D01*
X674963Y350757D01*
X674945Y350772D01*
X674919Y350804D01*
X672111Y353612D01*
X672111Y357588D01*
X674922Y360399D01*
X678898Y360399D01*
X680679Y358618D01*
X680753Y358565D01*
X680822Y358505D01*
X680852Y358493D01*
X680878Y358474D01*
X680965Y358447D01*
X681050Y358413D01*
X681091Y358409D01*
X681114Y358402D01*
X681146Y358403D01*
X681217Y358395D01*
X765313Y358395D01*
X765403Y358409D01*
X765494Y358417D01*
X765524Y358429D01*
X765556Y358434D01*
X765636Y358477D01*
X765720Y358513D01*
X765752Y358539D01*
X765773Y358550D01*
X765795Y358573D01*
X765851Y358618D01*
X767632Y360399D01*
X771608Y360399D01*
X774419Y357588D01*
X774419Y353612D01*
X771611Y350804D01*
X771569Y350746D01*
X771519Y350694D01*
X771498Y350647D01*
X771467Y350605D01*
X771446Y350536D01*
X771416Y350471D01*
X771410Y350419D01*
X771395Y350369D01*
X771397Y350298D01*
X771389Y350227D01*
X771400Y350176D01*
X771401Y350124D01*
X771426Y350056D01*
X771441Y349986D01*
X771468Y349941D01*
X771486Y349893D01*
X771530Y349837D01*
X771567Y349775D01*
X771607Y349741D01*
X771639Y349701D01*
X771700Y349662D01*
X771754Y349615D01*
X771802Y349596D01*
X771846Y349568D01*
X771916Y349550D01*
X771982Y349523D01*
X772054Y349515D01*
X772085Y349507D01*
X772108Y349509D01*
X772149Y349505D01*
X775767Y349505D01*
X775857Y349519D01*
X775948Y349527D01*
X775978Y349539D01*
X776010Y349544D01*
X776090Y349587D01*
X776174Y349623D01*
X776206Y349649D01*
X776227Y349660D01*
X776249Y349683D01*
X776305Y349728D01*
X779838Y353261D01*
X779891Y353335D01*
X779951Y353404D01*
X779963Y353434D01*
X779982Y353460D01*
X780009Y353547D01*
X780043Y353632D01*
X780047Y353673D01*
X780054Y353695D01*
X780053Y353728D01*
X780061Y353799D01*
X780061Y356318D01*
X782872Y359129D01*
X786848Y359129D01*
X789659Y356318D01*
X789659Y352342D01*
X786848Y349531D01*
X784329Y349531D01*
X784239Y349517D01*
X784148Y349509D01*
X784118Y349497D01*
X784086Y349492D01*
X784006Y349449D01*
X783922Y349413D01*
X783890Y349387D01*
X783869Y349376D01*
X783847Y349353D01*
X783791Y349308D01*
X778398Y343915D01*
X634746Y343915D01*
X634726Y343912D01*
X634707Y343914D01*
X634605Y343892D01*
X634503Y343876D01*
X634486Y343866D01*
X634466Y343862D01*
X634377Y343809D01*
X634286Y343760D01*
X634272Y343746D01*
X634255Y343736D01*
X634188Y343657D01*
X634116Y343582D01*
X634108Y343564D01*
X634095Y343549D01*
X634056Y343453D01*
X634013Y343359D01*
X634011Y343339D01*
X634003Y343321D01*
X633985Y343154D01*
X633985Y257556D01*
X633988Y257538D01*
X633986Y257520D01*
X633986Y257519D01*
X633986Y257517D01*
X634008Y257415D01*
X634024Y257313D01*
X634034Y257296D01*
X634038Y257276D01*
X634091Y257187D01*
X634140Y257096D01*
X634154Y257082D01*
X634164Y257065D01*
X634243Y256998D01*
X634318Y256926D01*
X634336Y256918D01*
X634351Y256905D01*
X634447Y256866D01*
X634541Y256823D01*
X634561Y256821D01*
X634579Y256813D01*
X634746Y256795D01*
X778307Y256795D01*
X778397Y256809D01*
X778488Y256817D01*
X778518Y256829D01*
X778550Y256834D01*
X778630Y256877D01*
X778714Y256913D01*
X778746Y256939D01*
X778767Y256950D01*
X778770Y256953D01*
X778771Y256953D01*
X778790Y256973D01*
X778845Y257018D01*
X779838Y258011D01*
X779891Y258085D01*
X779951Y258154D01*
X779963Y258184D01*
X779982Y258210D01*
X780009Y258297D01*
X780043Y258382D01*
X780047Y258423D01*
X780054Y258445D01*
X780053Y258478D01*
X780061Y258549D01*
X780061Y261068D01*
X782872Y263879D01*
X786848Y263879D01*
X789659Y261068D01*
X789659Y257092D01*
X786848Y254281D01*
X784329Y254281D01*
X784239Y254267D01*
X784148Y254259D01*
X784118Y254247D01*
X784086Y254242D01*
X784006Y254199D01*
X783922Y254163D01*
X783890Y254137D01*
X783869Y254126D01*
X783847Y254103D01*
X783791Y254058D01*
X782798Y253065D01*
X780725Y250992D01*
X780683Y250934D01*
X780633Y250882D01*
X780611Y250835D01*
X780581Y250793D01*
X780560Y250724D01*
X780530Y250659D01*
X780524Y250607D01*
X780509Y250557D01*
X780511Y250486D01*
X780503Y250415D01*
X780514Y250364D01*
X780515Y250312D01*
X780540Y250244D01*
X780555Y250174D01*
X780582Y250129D01*
X780600Y250081D01*
X780644Y250025D01*
X780681Y249963D01*
X780721Y249929D01*
X780753Y249889D01*
X780814Y249850D01*
X780868Y249803D01*
X780916Y249784D01*
X780960Y249756D01*
X781030Y249738D01*
X781096Y249711D01*
X781168Y249703D01*
X781199Y249695D01*
X781222Y249697D01*
X781263Y249693D01*
X865660Y249693D01*
X865680Y249696D01*
X865699Y249694D01*
X865801Y249716D01*
X865903Y249732D01*
X865920Y249742D01*
X865940Y249746D01*
X866029Y249799D01*
X866120Y249848D01*
X866134Y249862D01*
X866151Y249872D01*
X866218Y249951D01*
X866290Y250026D01*
X866298Y250044D01*
X866311Y250059D01*
X866350Y250155D01*
X866393Y250249D01*
X866395Y250269D01*
X866403Y250287D01*
X866421Y250454D01*
X866421Y252178D01*
X868975Y254732D01*
X868987Y254748D01*
X869002Y254760D01*
X869054Y254841D01*
X869061Y254848D01*
X869065Y254856D01*
X869119Y254931D01*
X869125Y254950D01*
X869135Y254967D01*
X869158Y255057D01*
X869164Y255071D01*
X869166Y255084D01*
X869191Y255167D01*
X869191Y255186D01*
X869196Y255206D01*
X869189Y255292D01*
X869191Y255315D01*
X869187Y255337D01*
X869185Y255412D01*
X869178Y255431D01*
X869176Y255451D01*
X869147Y255521D01*
X869139Y255556D01*
X869122Y255584D01*
X869100Y255643D01*
X869088Y255659D01*
X869080Y255677D01*
X869026Y255745D01*
X869013Y255767D01*
X868999Y255779D01*
X868975Y255808D01*
X867451Y257332D01*
X867377Y257385D01*
X867308Y257445D01*
X867278Y257457D01*
X867252Y257476D01*
X867164Y257503D01*
X867080Y257537D01*
X867039Y257541D01*
X867016Y257548D01*
X866984Y257547D01*
X866913Y257555D01*
X810740Y257555D01*
X810720Y257552D01*
X810701Y257554D01*
X810599Y257532D01*
X810497Y257516D01*
X810480Y257506D01*
X810460Y257502D01*
X810371Y257449D01*
X810280Y257400D01*
X810266Y257386D01*
X810249Y257376D01*
X810182Y257297D01*
X810148Y257261D01*
X807168Y254281D01*
X803192Y254281D01*
X800381Y257092D01*
X800381Y261068D01*
X803192Y263879D01*
X807168Y263879D01*
X807679Y263368D01*
X807753Y263315D01*
X807822Y263255D01*
X807852Y263243D01*
X807878Y263224D01*
X807965Y263197D01*
X808050Y263163D01*
X808091Y263159D01*
X808114Y263152D01*
X808146Y263153D01*
X808217Y263145D01*
X866913Y263145D01*
X867003Y263159D01*
X867094Y263167D01*
X867124Y263179D01*
X867156Y263184D01*
X867236Y263227D01*
X867320Y263263D01*
X867352Y263289D01*
X867373Y263300D01*
X867395Y263323D01*
X867451Y263368D01*
X869232Y265149D01*
X873208Y265149D01*
X876019Y262338D01*
X876019Y258362D01*
X873465Y255808D01*
X873453Y255792D01*
X873438Y255780D01*
X873409Y255735D01*
X873379Y255704D01*
X873360Y255663D01*
X873321Y255609D01*
X873315Y255590D01*
X873305Y255573D01*
X873288Y255508D01*
X873276Y255481D01*
X873272Y255449D01*
X873249Y255373D01*
X873249Y255354D01*
X873244Y255334D01*
X873251Y255255D01*
X873248Y255236D01*
X873253Y255216D01*
X873255Y255128D01*
X873262Y255109D01*
X873264Y255089D01*
X873298Y255008D01*
X873301Y254996D01*
X873307Y254985D01*
X873340Y254897D01*
X873352Y254881D01*
X873360Y254863D01*
X873465Y254732D01*
X876019Y252178D01*
X876019Y248202D01*
X873208Y245391D01*
X870689Y245391D01*
X870599Y245377D01*
X870508Y245369D01*
X870478Y245357D01*
X870446Y245352D01*
X870366Y245309D01*
X870282Y245273D01*
X870249Y245247D01*
X870229Y245236D01*
X870218Y245225D01*
X870217Y245225D01*
X870204Y245211D01*
X870151Y245168D01*
X869107Y244124D01*
X869065Y244066D01*
X869015Y244014D01*
X868993Y243967D01*
X868963Y243925D01*
X868942Y243856D01*
X868912Y243791D01*
X868906Y243739D01*
X868891Y243689D01*
X868893Y243618D01*
X868885Y243547D01*
X868896Y243496D01*
X868897Y243444D01*
X868922Y243376D01*
X868937Y243306D01*
X868964Y243261D01*
X868982Y243213D01*
X869026Y243157D01*
X869063Y243095D01*
X869103Y243061D01*
X869135Y243021D01*
X869196Y242982D01*
X869250Y242935D01*
X869298Y242916D01*
X869342Y242888D01*
X869412Y242870D01*
X869478Y242843D01*
X869549Y242835D01*
X869581Y242827D01*
X869604Y242829D01*
X869645Y242825D01*
X887233Y242825D01*
X887323Y242839D01*
X887414Y242847D01*
X887444Y242859D01*
X887476Y242864D01*
X887556Y242907D01*
X887640Y242943D01*
X887672Y242969D01*
X887693Y242980D01*
X887715Y243003D01*
X887771Y243048D01*
X889552Y244829D01*
X893528Y244829D01*
X895066Y243291D01*
X895124Y243249D01*
X895176Y243199D01*
X895223Y243178D01*
X895265Y243147D01*
X895334Y243126D01*
X895399Y243096D01*
X895451Y243090D01*
X895501Y243075D01*
X895572Y243077D01*
X895643Y243069D01*
X895694Y243080D01*
X895746Y243081D01*
X895814Y243106D01*
X895884Y243121D01*
X895929Y243148D01*
X895977Y243166D01*
X896033Y243210D01*
X896095Y243247D01*
X896129Y243287D01*
X896169Y243319D01*
X896208Y243380D01*
X896255Y243434D01*
X896274Y243482D01*
X896302Y243526D01*
X896320Y243596D01*
X896347Y243662D01*
X896355Y243734D01*
X896363Y243765D01*
X896361Y243788D01*
X896365Y243829D01*
X896365Y565161D01*
X896354Y565232D01*
X896352Y565303D01*
X896334Y565352D01*
X896326Y565404D01*
X896292Y565467D01*
X896267Y565534D01*
X896235Y565575D01*
X896210Y565621D01*
X896158Y565671D01*
X896114Y565727D01*
X896070Y565755D01*
X896032Y565791D01*
X895967Y565821D01*
X895907Y565860D01*
X895856Y565872D01*
X895809Y565894D01*
X895738Y565902D01*
X895668Y565920D01*
X895616Y565916D01*
X895565Y565921D01*
X895494Y565906D01*
X895423Y565900D01*
X895375Y565880D01*
X895324Y565869D01*
X895263Y565832D01*
X895197Y565804D01*
X895141Y565759D01*
X895113Y565743D01*
X895098Y565725D01*
X895066Y565699D01*
X892258Y562891D01*
X888282Y562891D01*
X885471Y565702D01*
X885471Y568221D01*
X885457Y568311D01*
X885449Y568402D01*
X885437Y568432D01*
X885432Y568464D01*
X885389Y568544D01*
X885353Y568628D01*
X885327Y568660D01*
X885316Y568681D01*
X885293Y568703D01*
X885248Y568759D01*
X804245Y649762D01*
X804171Y649815D01*
X804102Y649875D01*
X804072Y649887D01*
X804046Y649906D01*
X803959Y649933D01*
X803874Y649967D01*
X803833Y649971D01*
X803811Y649978D01*
X803778Y649977D01*
X803707Y649985D01*
X726429Y649985D01*
X726358Y649974D01*
X726287Y649972D01*
X726238Y649954D01*
X726186Y649946D01*
X726123Y649912D01*
X726056Y649887D01*
X726015Y649855D01*
X725969Y649830D01*
X725919Y649778D01*
X725863Y649734D01*
X725835Y649690D01*
X725799Y649652D01*
X725769Y649587D01*
X725730Y649527D01*
X725718Y649476D01*
X725696Y649429D01*
X725688Y649358D01*
X725670Y649288D01*
X725674Y649236D01*
X725669Y649185D01*
X725684Y649114D01*
X725690Y649043D01*
X725710Y648995D01*
X725721Y648944D01*
X725758Y648883D01*
X725786Y648817D01*
X725831Y648761D01*
X725847Y648733D01*
X725865Y648718D01*
X725891Y648686D01*
X728699Y645878D01*
X728699Y641902D01*
X725888Y639091D01*
X723369Y639091D01*
X723279Y639077D01*
X723188Y639069D01*
X723158Y639057D01*
X723126Y639052D01*
X723046Y639009D01*
X722962Y638973D01*
X722929Y638947D01*
X722909Y638936D01*
X722887Y638913D01*
X722831Y638868D01*
X721251Y637288D01*
X721209Y637230D01*
X721159Y637178D01*
X721137Y637131D01*
X721107Y637089D01*
X721086Y637020D01*
X721056Y636955D01*
X721050Y636903D01*
X721035Y636853D01*
X721037Y636782D01*
X721029Y636711D01*
X721040Y636660D01*
X721041Y636608D01*
X721066Y636540D01*
X721081Y636470D01*
X721108Y636425D01*
X721126Y636377D01*
X721170Y636321D01*
X721207Y636259D01*
X721247Y636225D01*
X721279Y636185D01*
X721340Y636146D01*
X721394Y636099D01*
X721442Y636080D01*
X721486Y636052D01*
X721556Y636034D01*
X721622Y636007D01*
X721694Y635999D01*
X721725Y635991D01*
X721748Y635993D01*
X721789Y635989D01*
X725888Y635989D01*
X728699Y633178D01*
X728699Y629202D01*
X725888Y626391D01*
X723369Y626391D01*
X723279Y626377D01*
X723188Y626369D01*
X723158Y626357D01*
X723126Y626352D01*
X723046Y626309D01*
X722962Y626273D01*
X722929Y626247D01*
X722909Y626236D01*
X722887Y626213D01*
X722831Y626168D01*
X721251Y624588D01*
X721209Y624530D01*
X721159Y624478D01*
X721137Y624431D01*
X721107Y624389D01*
X721086Y624320D01*
X721056Y624255D01*
X721050Y624203D01*
X721035Y624153D01*
X721037Y624082D01*
X721029Y624011D01*
X721040Y623960D01*
X721041Y623908D01*
X721066Y623840D01*
X721081Y623770D01*
X721108Y623725D01*
X721126Y623677D01*
X721170Y623621D01*
X721207Y623559D01*
X721247Y623525D01*
X721279Y623485D01*
X721340Y623446D01*
X721394Y623399D01*
X721442Y623380D01*
X721486Y623352D01*
X721556Y623334D01*
X721622Y623307D01*
X721694Y623299D01*
X721725Y623291D01*
X721748Y623293D01*
X721789Y623289D01*
X725888Y623289D01*
X728699Y620478D01*
X728699Y616502D01*
X725888Y613691D01*
X723369Y613691D01*
X723279Y613677D01*
X723188Y613669D01*
X723158Y613657D01*
X723126Y613652D01*
X723046Y613609D01*
X722962Y613573D01*
X722930Y613547D01*
X722909Y613536D01*
X722887Y613513D01*
X722831Y613468D01*
X717438Y608075D01*
X674867Y608075D01*
X674777Y608061D01*
X674686Y608053D01*
X674656Y608041D01*
X674624Y608036D01*
X674544Y607993D01*
X674460Y607957D01*
X674428Y607931D01*
X674407Y607920D01*
X674385Y607897D01*
X674329Y607852D01*
X672548Y606071D01*
X668572Y606071D01*
X665761Y608882D01*
X665761Y612858D01*
X668572Y615669D01*
X672548Y615669D01*
X674329Y613888D01*
X674403Y613835D01*
X674472Y613775D01*
X674502Y613763D01*
X674528Y613744D01*
X674615Y613717D01*
X674700Y613683D01*
X674741Y613679D01*
X674764Y613672D01*
X674796Y613673D01*
X674867Y613665D01*
X714807Y613665D01*
X714897Y613679D01*
X714988Y613687D01*
X715018Y613699D01*
X715050Y613704D01*
X715130Y613747D01*
X715214Y613783D01*
X715246Y613809D01*
X715267Y613820D01*
X715289Y613843D01*
X715345Y613888D01*
X718878Y617421D01*
X718931Y617495D01*
X718991Y617564D01*
X719003Y617594D01*
X719022Y617620D01*
X719049Y617707D01*
X719083Y617792D01*
X719087Y617833D01*
X719094Y617855D01*
X719093Y617888D01*
X719101Y617959D01*
X719101Y620601D01*
X719090Y620672D01*
X719088Y620744D01*
X719070Y620793D01*
X719062Y620844D01*
X719028Y620907D01*
X719003Y620975D01*
X718971Y621015D01*
X718946Y621061D01*
X718894Y621111D01*
X718850Y621167D01*
X718806Y621195D01*
X718768Y621231D01*
X718703Y621261D01*
X718643Y621300D01*
X718592Y621312D01*
X718545Y621334D01*
X718474Y621342D01*
X718404Y621360D01*
X718352Y621356D01*
X718301Y621361D01*
X718230Y621346D01*
X718159Y621341D01*
X718111Y621320D01*
X718060Y621309D01*
X717999Y621272D01*
X717933Y621244D01*
X717877Y621199D01*
X717849Y621183D01*
X717834Y621165D01*
X717802Y621139D01*
X717438Y620775D01*
X674867Y620775D01*
X674777Y620761D01*
X674686Y620753D01*
X674656Y620741D01*
X674624Y620736D01*
X674544Y620693D01*
X674460Y620657D01*
X674428Y620631D01*
X674407Y620620D01*
X674385Y620597D01*
X674329Y620552D01*
X672548Y618771D01*
X668572Y618771D01*
X665761Y621582D01*
X665761Y625558D01*
X668572Y628369D01*
X672548Y628369D01*
X674329Y626588D01*
X674403Y626535D01*
X674472Y626475D01*
X674502Y626463D01*
X674528Y626444D01*
X674615Y626417D01*
X674700Y626383D01*
X674741Y626379D01*
X674764Y626372D01*
X674796Y626373D01*
X674867Y626365D01*
X714807Y626365D01*
X714897Y626379D01*
X714988Y626387D01*
X715018Y626399D01*
X715050Y626404D01*
X715130Y626447D01*
X715214Y626483D01*
X715246Y626509D01*
X715267Y626520D01*
X715289Y626543D01*
X715345Y626588D01*
X718878Y630121D01*
X718931Y630194D01*
X718991Y630264D01*
X719003Y630294D01*
X719022Y630320D01*
X719049Y630407D01*
X719083Y630492D01*
X719087Y630533D01*
X719094Y630555D01*
X719093Y630588D01*
X719101Y630659D01*
X719101Y633301D01*
X719090Y633372D01*
X719088Y633444D01*
X719070Y633493D01*
X719062Y633544D01*
X719028Y633607D01*
X719003Y633675D01*
X718971Y633715D01*
X718946Y633761D01*
X718894Y633811D01*
X718850Y633867D01*
X718806Y633895D01*
X718768Y633931D01*
X718703Y633961D01*
X718643Y634000D01*
X718592Y634012D01*
X718545Y634034D01*
X718474Y634042D01*
X718404Y634060D01*
X718352Y634056D01*
X718301Y634061D01*
X718230Y634046D01*
X718159Y634041D01*
X718111Y634020D01*
X718060Y634009D01*
X717999Y633972D01*
X717933Y633944D01*
X717877Y633899D01*
X717849Y633883D01*
X717834Y633865D01*
X717802Y633839D01*
X717438Y633475D01*
X674867Y633475D01*
X674777Y633461D01*
X674686Y633453D01*
X674656Y633441D01*
X674624Y633436D01*
X674544Y633393D01*
X674460Y633357D01*
X674428Y633331D01*
X674407Y633320D01*
X674385Y633297D01*
X674329Y633252D01*
X672548Y631471D01*
X668572Y631471D01*
X665761Y634282D01*
X665761Y638258D01*
X668572Y641069D01*
X672548Y641069D01*
X674329Y639288D01*
X674403Y639235D01*
X674472Y639175D01*
X674502Y639163D01*
X674528Y639144D01*
X674615Y639117D01*
X674700Y639083D01*
X674741Y639079D01*
X674764Y639072D01*
X674796Y639073D01*
X674867Y639065D01*
X714807Y639065D01*
X714897Y639079D01*
X714988Y639087D01*
X715018Y639099D01*
X715050Y639104D01*
X715130Y639147D01*
X715214Y639183D01*
X715246Y639209D01*
X715267Y639220D01*
X715289Y639243D01*
X715345Y639288D01*
X718878Y642821D01*
X718931Y642895D01*
X718991Y642964D01*
X719003Y642994D01*
X719022Y643020D01*
X719049Y643107D01*
X719083Y643192D01*
X719087Y643233D01*
X719094Y643255D01*
X719093Y643288D01*
X719101Y643359D01*
X719101Y645878D01*
X721909Y648686D01*
X721951Y648744D01*
X722001Y648796D01*
X722022Y648843D01*
X722053Y648885D01*
X722074Y648954D01*
X722104Y649019D01*
X722110Y649071D01*
X722125Y649121D01*
X722123Y649192D01*
X722131Y649263D01*
X722120Y649314D01*
X722119Y649366D01*
X722094Y649434D01*
X722079Y649504D01*
X722052Y649549D01*
X722034Y649597D01*
X721990Y649653D01*
X721953Y649715D01*
X721913Y649749D01*
X721881Y649789D01*
X721820Y649828D01*
X721766Y649875D01*
X721718Y649894D01*
X721674Y649922D01*
X721604Y649940D01*
X721538Y649967D01*
X721466Y649975D01*
X721435Y649983D01*
X721412Y649981D01*
X721371Y649985D01*
X674867Y649985D01*
X674777Y649971D01*
X674686Y649963D01*
X674656Y649951D01*
X674624Y649946D01*
X674544Y649903D01*
X674460Y649867D01*
X674428Y649841D01*
X674407Y649830D01*
X674385Y649807D01*
X674329Y649762D01*
X672548Y647981D01*
X668572Y647981D01*
X665761Y650792D01*
X665761Y654768D01*
X668572Y657579D01*
X672548Y657579D01*
X674329Y655798D01*
X674403Y655745D01*
X674472Y655685D01*
X674502Y655673D01*
X674528Y655654D01*
X674615Y655627D01*
X674700Y655593D01*
X674741Y655589D01*
X674764Y655582D01*
X674796Y655583D01*
X674867Y655575D01*
X806338Y655575D01*
X889201Y572712D01*
X889275Y572659D01*
X889344Y572599D01*
X889374Y572587D01*
X889400Y572568D01*
X889487Y572541D01*
X889572Y572507D01*
X889613Y572503D01*
X889635Y572496D01*
X889668Y572497D01*
X889739Y572489D01*
X892258Y572489D01*
X895066Y569681D01*
X895124Y569639D01*
X895176Y569589D01*
X895223Y569568D01*
X895265Y569537D01*
X895334Y569516D01*
X895399Y569486D01*
X895451Y569480D01*
X895501Y569465D01*
X895572Y569467D01*
X895643Y569459D01*
X895694Y569470D01*
X895746Y569471D01*
X895814Y569496D01*
X895884Y569511D01*
X895929Y569538D01*
X895977Y569556D01*
X896033Y569600D01*
X896095Y569637D01*
X896129Y569677D01*
X896169Y569709D01*
X896208Y569770D01*
X896255Y569824D01*
X896274Y569872D01*
X896302Y569916D01*
X896320Y569986D01*
X896347Y570052D01*
X896355Y570124D01*
X896363Y570155D01*
X896361Y570178D01*
X896365Y570219D01*
X896365Y643901D01*
X896354Y643972D01*
X896352Y644043D01*
X896334Y644092D01*
X896326Y644144D01*
X896292Y644207D01*
X896267Y644274D01*
X896235Y644315D01*
X896210Y644361D01*
X896158Y644411D01*
X896114Y644467D01*
X896070Y644495D01*
X896032Y644531D01*
X895967Y644561D01*
X895907Y644600D01*
X895856Y644612D01*
X895809Y644634D01*
X895738Y644642D01*
X895668Y644660D01*
X895616Y644656D01*
X895565Y644661D01*
X895494Y644646D01*
X895423Y644640D01*
X895375Y644620D01*
X895324Y644609D01*
X895263Y644572D01*
X895197Y644544D01*
X895141Y644499D01*
X895113Y644483D01*
X895098Y644465D01*
X895066Y644439D01*
X893528Y642901D01*
X889552Y642901D01*
X886741Y645712D01*
X886741Y648231D01*
X886727Y648321D01*
X886719Y648412D01*
X886707Y648442D01*
X886702Y648474D01*
X886659Y648554D01*
X886623Y648638D01*
X886597Y648670D01*
X886586Y648691D01*
X886563Y648713D01*
X886518Y648769D01*
X869015Y666272D01*
X868941Y666325D01*
X868872Y666385D01*
X868842Y666397D01*
X868816Y666416D01*
X868729Y666443D01*
X868644Y666477D01*
X868603Y666481D01*
X868581Y666488D01*
X868548Y666487D01*
X868477Y666495D01*
X825195Y666495D01*
X825124Y666484D01*
X825052Y666482D01*
X825003Y666464D01*
X824952Y666456D01*
X824889Y666422D01*
X824821Y666397D01*
X824781Y666365D01*
X824735Y666340D01*
X824685Y666288D01*
X824629Y666243D01*
X824601Y666200D01*
X824565Y666162D01*
X824535Y666097D01*
X824496Y666037D01*
X824484Y665986D01*
X824462Y665939D01*
X824454Y665868D01*
X824436Y665798D01*
X824440Y665746D01*
X824435Y665695D01*
X824450Y665624D01*
X824456Y665553D01*
X824476Y665505D01*
X824487Y665454D01*
X824524Y665393D01*
X824552Y665326D01*
X824597Y665271D01*
X824613Y665243D01*
X824631Y665228D01*
X824657Y665196D01*
X824708Y665145D01*
X887931Y601922D01*
X888005Y601869D01*
X888074Y601809D01*
X888104Y601797D01*
X888130Y601778D01*
X888217Y601751D01*
X888302Y601717D01*
X888343Y601713D01*
X888365Y601706D01*
X888398Y601707D01*
X888469Y601699D01*
X890988Y601699D01*
X893799Y598888D01*
X893799Y594912D01*
X890988Y592101D01*
X887012Y592101D01*
X884201Y594912D01*
X884201Y597431D01*
X884187Y597521D01*
X884179Y597612D01*
X884167Y597642D01*
X884162Y597674D01*
X884119Y597754D01*
X884083Y597838D01*
X884057Y597870D01*
X884046Y597891D01*
X884023Y597913D01*
X883978Y597969D01*
X820755Y661192D01*
X820681Y661245D01*
X820612Y661305D01*
X820582Y661317D01*
X820556Y661336D01*
X820469Y661363D01*
X820384Y661397D01*
X820343Y661401D01*
X820321Y661408D01*
X820288Y661407D01*
X820217Y661415D01*
X674867Y661415D01*
X674777Y661401D01*
X674686Y661393D01*
X674656Y661381D01*
X674624Y661376D01*
X674544Y661333D01*
X674460Y661297D01*
X674428Y661271D01*
X674407Y661260D01*
X674385Y661237D01*
X674329Y661192D01*
X672548Y659411D01*
X668572Y659411D01*
X665761Y662222D01*
X665761Y666198D01*
X668572Y669009D01*
X672548Y669009D01*
X674329Y667228D01*
X674403Y667175D01*
X674472Y667115D01*
X674502Y667103D01*
X674528Y667084D01*
X674615Y667057D01*
X674700Y667023D01*
X674741Y667019D01*
X674764Y667012D01*
X674796Y667013D01*
X674867Y667005D01*
X777545Y667005D01*
X777616Y667016D01*
X777688Y667018D01*
X777737Y667036D01*
X777788Y667044D01*
X777851Y667078D01*
X777919Y667103D01*
X777959Y667135D01*
X778005Y667160D01*
X778055Y667212D01*
X778111Y667256D01*
X778139Y667300D01*
X778175Y667338D01*
X778205Y667403D01*
X778244Y667463D01*
X778256Y667514D01*
X778278Y667561D01*
X778286Y667632D01*
X778304Y667702D01*
X778300Y667754D01*
X778305Y667805D01*
X778290Y667876D01*
X778285Y667947D01*
X778264Y667995D01*
X778253Y668046D01*
X778216Y668107D01*
X778188Y668173D01*
X778143Y668229D01*
X778127Y668257D01*
X778109Y668272D01*
X778083Y668304D01*
X773765Y672622D01*
X773691Y672675D01*
X773622Y672735D01*
X773592Y672747D01*
X773566Y672766D01*
X773478Y672793D01*
X773394Y672827D01*
X773353Y672831D01*
X773331Y672838D01*
X773298Y672837D01*
X773227Y672845D01*
X674867Y672845D01*
X674777Y672831D01*
X674686Y672823D01*
X674656Y672811D01*
X674624Y672806D01*
X674544Y672763D01*
X674460Y672727D01*
X674428Y672701D01*
X674407Y672690D01*
X674385Y672667D01*
X674329Y672622D01*
X672548Y670841D01*
X668572Y670841D01*
X665761Y673652D01*
X665761Y677628D01*
X668315Y680182D01*
X668327Y680198D01*
X668342Y680210D01*
X668399Y680298D01*
X668459Y680381D01*
X668465Y680400D01*
X668475Y680417D01*
X668501Y680518D01*
X668531Y680617D01*
X668531Y680636D01*
X668536Y680656D01*
X668528Y680759D01*
X668525Y680862D01*
X668518Y680881D01*
X668516Y680901D01*
X668476Y680996D01*
X668440Y681093D01*
X668428Y681109D01*
X668420Y681127D01*
X668315Y681258D01*
X665761Y683812D01*
X665761Y687788D01*
X668315Y690342D01*
X668327Y690358D01*
X668342Y690370D01*
X668399Y690458D01*
X668459Y690541D01*
X668465Y690560D01*
X668475Y690577D01*
X668501Y690678D01*
X668531Y690777D01*
X668531Y690796D01*
X668536Y690816D01*
X668528Y690919D01*
X668525Y691022D01*
X668518Y691041D01*
X668516Y691061D01*
X668476Y691156D01*
X668440Y691253D01*
X668428Y691269D01*
X668420Y691287D01*
X668315Y691418D01*
X665761Y693972D01*
X665761Y697948D01*
X668315Y700502D01*
X668327Y700518D01*
X668342Y700530D01*
X668399Y700618D01*
X668459Y700701D01*
X668465Y700720D01*
X668475Y700737D01*
X668501Y700838D01*
X668531Y700937D01*
X668531Y700956D01*
X668536Y700976D01*
X668528Y701079D01*
X668525Y701182D01*
X668518Y701201D01*
X668516Y701221D01*
X668476Y701316D01*
X668440Y701413D01*
X668428Y701429D01*
X668420Y701447D01*
X668315Y701578D01*
X665761Y704132D01*
X665761Y708108D01*
X668315Y710662D01*
X668327Y710678D01*
X668342Y710690D01*
X668399Y710778D01*
X668459Y710861D01*
X668465Y710880D01*
X668475Y710897D01*
X668501Y710998D01*
X668531Y711097D01*
X668531Y711116D01*
X668536Y711136D01*
X668528Y711239D01*
X668525Y711342D01*
X668518Y711361D01*
X668516Y711381D01*
X668476Y711476D01*
X668440Y711573D01*
X668428Y711589D01*
X668420Y711607D01*
X668315Y711738D01*
X665761Y714292D01*
X665761Y718268D01*
X668315Y720822D01*
X668327Y720838D01*
X668342Y720850D01*
X668399Y720938D01*
X668459Y721021D01*
X668465Y721040D01*
X668475Y721057D01*
X668501Y721158D01*
X668531Y721257D01*
X668531Y721276D01*
X668536Y721296D01*
X668528Y721399D01*
X668525Y721502D01*
X668518Y721521D01*
X668516Y721541D01*
X668476Y721636D01*
X668440Y721733D01*
X668428Y721749D01*
X668420Y721767D01*
X668315Y721898D01*
X665761Y724452D01*
X665761Y728428D01*
X668572Y731239D01*
X672548Y731239D01*
X674329Y729458D01*
X674403Y729405D01*
X674472Y729345D01*
X674502Y729333D01*
X674528Y729314D01*
X674615Y729287D01*
X674700Y729253D01*
X674741Y729249D01*
X674764Y729242D01*
X674796Y729243D01*
X674867Y729235D01*
X778307Y729235D01*
X778397Y729249D01*
X778488Y729257D01*
X778518Y729269D01*
X778550Y729274D01*
X778630Y729317D01*
X778714Y729353D01*
X778746Y729379D01*
X778767Y729390D01*
X778789Y729413D01*
X778845Y729458D01*
X823072Y773685D01*
X888503Y773685D01*
X888593Y773699D01*
X888684Y773707D01*
X888714Y773719D01*
X888746Y773724D01*
X888826Y773767D01*
X888910Y773803D01*
X888942Y773829D01*
X888963Y773840D01*
X888965Y773842D01*
X888986Y773863D01*
X889041Y773908D01*
X890822Y775689D01*
X894798Y775689D01*
X897609Y772878D01*
X897609Y768902D01*
X894798Y766091D01*
X890822Y766091D01*
X889041Y767872D01*
X888967Y767925D01*
X888898Y767985D01*
X888868Y767997D01*
X888842Y768016D01*
X888755Y768043D01*
X888670Y768077D01*
X888629Y768081D01*
X888606Y768088D01*
X888574Y768087D01*
X888503Y768095D01*
X825703Y768095D01*
X825613Y768081D01*
X825522Y768073D01*
X825492Y768061D01*
X825460Y768056D01*
X825380Y768013D01*
X825296Y767977D01*
X825264Y767951D01*
X825243Y767940D01*
X825221Y767917D01*
X825165Y767872D01*
X780938Y723645D01*
X674867Y723645D01*
X674777Y723631D01*
X674686Y723623D01*
X674656Y723611D01*
X674624Y723606D01*
X674544Y723563D01*
X674460Y723527D01*
X674428Y723501D01*
X674407Y723490D01*
X674385Y723467D01*
X674329Y723422D01*
X672805Y721898D01*
X672793Y721882D01*
X672778Y721870D01*
X672721Y721782D01*
X672661Y721699D01*
X672655Y721680D01*
X672645Y721663D01*
X672619Y721562D01*
X672589Y721463D01*
X672589Y721444D01*
X672584Y721424D01*
X672592Y721321D01*
X672595Y721218D01*
X672602Y721199D01*
X672604Y721179D01*
X672644Y721084D01*
X672680Y720987D01*
X672692Y720971D01*
X672700Y720953D01*
X672805Y720822D01*
X674329Y719298D01*
X674403Y719245D01*
X674472Y719185D01*
X674502Y719173D01*
X674528Y719154D01*
X674615Y719127D01*
X674700Y719093D01*
X674741Y719089D01*
X674764Y719082D01*
X674796Y719083D01*
X674867Y719075D01*
X780847Y719075D01*
X780937Y719089D01*
X781028Y719097D01*
X781058Y719109D01*
X781090Y719114D01*
X781170Y719157D01*
X781254Y719193D01*
X781286Y719219D01*
X781307Y719230D01*
X781329Y719253D01*
X781385Y719298D01*
X823072Y760985D01*
X888503Y760985D01*
X888593Y760999D01*
X888684Y761007D01*
X888714Y761019D01*
X888746Y761024D01*
X888826Y761067D01*
X888910Y761103D01*
X888943Y761129D01*
X888963Y761140D01*
X888985Y761163D01*
X889041Y761208D01*
X890822Y762989D01*
X894798Y762989D01*
X897609Y760178D01*
X897609Y756202D01*
X894798Y753391D01*
X890822Y753391D01*
X889041Y755172D01*
X888967Y755225D01*
X888898Y755285D01*
X888868Y755297D01*
X888842Y755316D01*
X888755Y755343D01*
X888670Y755377D01*
X888629Y755381D01*
X888606Y755388D01*
X888574Y755387D01*
X888503Y755395D01*
X825703Y755395D01*
X825613Y755381D01*
X825522Y755373D01*
X825492Y755361D01*
X825460Y755356D01*
X825380Y755313D01*
X825296Y755277D01*
X825263Y755251D01*
X825243Y755240D01*
X825221Y755217D01*
X825165Y755172D01*
X823387Y753394D01*
X823345Y753336D01*
X823295Y753284D01*
X823273Y753237D01*
X823243Y753195D01*
X823222Y753126D01*
X823192Y753061D01*
X823186Y753009D01*
X823171Y752959D01*
X823173Y752888D01*
X823165Y752817D01*
X823176Y752766D01*
X823177Y752714D01*
X823202Y752646D01*
X823217Y752576D01*
X823244Y752531D01*
X823262Y752483D01*
X823306Y752427D01*
X823343Y752365D01*
X823383Y752331D01*
X823415Y752291D01*
X823476Y752252D01*
X823530Y752205D01*
X823578Y752186D01*
X823622Y752158D01*
X823692Y752140D01*
X823758Y752113D01*
X823830Y752105D01*
X823861Y752097D01*
X823884Y752099D01*
X823925Y752095D01*
X881268Y752095D01*
X913331Y720032D01*
X913405Y719979D01*
X913474Y719919D01*
X913504Y719907D01*
X913530Y719888D01*
X913617Y719861D01*
X913702Y719827D01*
X913743Y719823D01*
X913765Y719816D01*
X913798Y719817D01*
X913869Y719809D01*
X916388Y719809D01*
X919199Y716998D01*
X919199Y713022D01*
X916388Y710211D01*
X912340Y710211D01*
X912320Y710208D01*
X912301Y710210D01*
X912199Y710188D01*
X912097Y710172D01*
X912080Y710162D01*
X912060Y710158D01*
X911971Y710105D01*
X911880Y710056D01*
X911866Y710042D01*
X911849Y710032D01*
X911782Y709953D01*
X911710Y709878D01*
X911702Y709860D01*
X911689Y709845D01*
X911650Y709749D01*
X911607Y709655D01*
X911605Y709635D01*
X911597Y709617D01*
X911579Y709450D01*
X911579Y706672D01*
X909798Y704891D01*
X909745Y704817D01*
X909685Y704748D01*
X909673Y704718D01*
X909654Y704692D01*
X909627Y704605D01*
X909593Y704520D01*
X909589Y704479D01*
X909582Y704456D01*
X909583Y704424D01*
X909575Y704353D01*
X909575Y434837D01*
X909589Y434747D01*
X909597Y434656D01*
X909609Y434626D01*
X909614Y434594D01*
X909657Y434514D01*
X909693Y434430D01*
X909719Y434398D01*
X909730Y434377D01*
X909753Y434355D01*
X909798Y434299D01*
X911579Y432518D01*
X911579Y428542D01*
X909798Y426761D01*
X909745Y426687D01*
X909685Y426618D01*
X909673Y426588D01*
X909654Y426562D01*
X909627Y426475D01*
X909593Y426390D01*
X909589Y426349D01*
X909582Y426326D01*
X909583Y426294D01*
X909575Y426223D01*
X909575Y190612D01*
X907715Y188752D01*
X764530Y45568D01*
X764525Y45561D01*
X764519Y45557D01*
X764453Y45461D01*
X764387Y45368D01*
X764384Y45360D01*
X764380Y45354D01*
X764348Y45243D01*
X764314Y45133D01*
X764314Y45125D01*
X764312Y45117D01*
X764318Y45003D01*
X764321Y44887D01*
X764323Y44880D01*
X764324Y44872D01*
X764365Y44765D01*
X764405Y44656D01*
X764410Y44650D01*
X764413Y44642D01*
X764487Y44554D01*
X764559Y44464D01*
X764565Y44460D01*
X764571Y44454D01*
X764669Y44393D01*
X764766Y44331D01*
X764773Y44329D01*
X764780Y44325D01*
X764893Y44299D01*
X765004Y44271D01*
X765012Y44272D01*
X765020Y44270D01*
X765188Y44278D01*
X765557Y44336D01*
X765557Y28193D01*
X756919Y28193D01*
X756919Y35090D01*
X757092Y36182D01*
X757092Y36190D01*
X757095Y36198D01*
X757092Y36314D01*
X757091Y36428D01*
X757089Y36436D01*
X757088Y36444D01*
X757049Y36553D01*
X757011Y36661D01*
X757007Y36667D01*
X757004Y36675D01*
X756932Y36765D01*
X756862Y36856D01*
X756855Y36861D01*
X756850Y36867D01*
X756753Y36929D01*
X756658Y36994D01*
X756650Y36996D01*
X756643Y37000D01*
X756531Y37028D01*
X756420Y37059D01*
X756412Y37058D01*
X756405Y37060D01*
X756290Y37051D01*
X756175Y37045D01*
X756167Y37042D01*
X756159Y37041D01*
X756055Y36997D01*
X755947Y36953D01*
X755940Y36948D01*
X755933Y36945D01*
X755802Y36840D01*
X751048Y32085D01*
X750995Y32011D01*
X750935Y31942D01*
X750923Y31912D01*
X750904Y31886D01*
X750877Y31799D01*
X750843Y31714D01*
X750839Y31673D01*
X750832Y31651D01*
X750833Y31618D01*
X750825Y31547D01*
X750825Y17231D01*
X749433Y13870D01*
X746860Y11297D01*
X743499Y9905D01*
X739861Y9905D01*
X736500Y11297D01*
X733927Y13870D01*
X732535Y17231D01*
X732535Y36109D01*
X733096Y37462D01*
X733118Y37557D01*
X733147Y37650D01*
X733146Y37676D01*
X733152Y37702D01*
X733143Y37799D01*
X733140Y37896D01*
X733131Y37921D01*
X733129Y37947D01*
X733089Y38035D01*
X733056Y38127D01*
X733040Y38148D01*
X733029Y38171D01*
X732963Y38243D01*
X732902Y38319D01*
X732880Y38333D01*
X732863Y38353D01*
X732777Y38399D01*
X732695Y38452D01*
X732670Y38458D01*
X732647Y38471D01*
X732551Y38488D01*
X732457Y38512D01*
X732431Y38510D01*
X732405Y38515D01*
X732308Y38501D01*
X732212Y38493D01*
X732188Y38483D01*
X732162Y38479D01*
X732075Y38435D01*
X731985Y38397D01*
X731960Y38376D01*
X731942Y38368D01*
X731919Y38344D01*
X731854Y38292D01*
X725648Y32085D01*
X725595Y32011D01*
X725535Y31942D01*
X725523Y31912D01*
X725504Y31886D01*
X725477Y31799D01*
X725443Y31714D01*
X725439Y31673D01*
X725432Y31651D01*
X725433Y31618D01*
X725425Y31547D01*
X725425Y17231D01*
X724033Y13870D01*
X721460Y11297D01*
X718099Y9905D01*
X714461Y9905D01*
G37*
%LPD*%
%LPC*%
G36*
X31225Y312285D02*
X31225Y312285D01*
X27908Y313659D01*
X25369Y316198D01*
X23995Y319515D01*
X23995Y323105D01*
X25369Y326422D01*
X27908Y328961D01*
X31225Y330335D01*
X34815Y330335D01*
X38132Y328961D01*
X39971Y327122D01*
X40045Y327069D01*
X40115Y327009D01*
X40145Y326997D01*
X40171Y326978D01*
X40258Y326951D01*
X40343Y326917D01*
X40384Y326913D01*
X40406Y326906D01*
X40438Y326907D01*
X40510Y326899D01*
X589552Y326899D01*
X589667Y326918D01*
X589783Y326935D01*
X589789Y326937D01*
X589795Y326938D01*
X589898Y326993D01*
X590002Y327046D01*
X590007Y327051D01*
X590012Y327054D01*
X590093Y327139D01*
X590174Y327222D01*
X590178Y327228D01*
X590182Y327232D01*
X590189Y327249D01*
X590255Y327369D01*
X590417Y327760D01*
X592990Y330333D01*
X596351Y331725D01*
X615229Y331725D01*
X618590Y330333D01*
X621163Y327760D01*
X622555Y324399D01*
X622555Y320761D01*
X621163Y317400D01*
X618590Y314827D01*
X615229Y313435D01*
X596351Y313435D01*
X592990Y314827D01*
X592319Y315498D01*
X592245Y315551D01*
X592176Y315611D01*
X592146Y315623D01*
X592119Y315642D01*
X592032Y315669D01*
X591948Y315703D01*
X591907Y315707D01*
X591884Y315714D01*
X591852Y315713D01*
X591781Y315721D01*
X40510Y315721D01*
X40419Y315707D01*
X40329Y315699D01*
X40299Y315687D01*
X40267Y315682D01*
X40186Y315639D01*
X40102Y315603D01*
X40070Y315577D01*
X40049Y315566D01*
X40027Y315543D01*
X39971Y315498D01*
X38132Y313659D01*
X34815Y312285D01*
X31225Y312285D01*
G37*
%LPD*%
G36*
X895694Y678690D02*
X895694Y678690D01*
X895746Y678691D01*
X895814Y678716D01*
X895884Y678731D01*
X895929Y678758D01*
X895977Y678776D01*
X896033Y678820D01*
X896095Y678857D01*
X896129Y678897D01*
X896169Y678929D01*
X896208Y678990D01*
X896255Y679044D01*
X896274Y679092D01*
X896302Y679136D01*
X896320Y679206D01*
X896347Y679272D01*
X896355Y679344D01*
X896363Y679375D01*
X896361Y679398D01*
X896365Y679439D01*
X896365Y692923D01*
X896351Y693013D01*
X896343Y693104D01*
X896331Y693134D01*
X896326Y693166D01*
X896283Y693246D01*
X896247Y693330D01*
X896221Y693362D01*
X896210Y693383D01*
X896187Y693405D01*
X896142Y693461D01*
X894361Y695242D01*
X894361Y699218D01*
X897172Y702029D01*
X901148Y702029D01*
X902686Y700491D01*
X902744Y700449D01*
X902796Y700399D01*
X902843Y700378D01*
X902885Y700347D01*
X902954Y700326D01*
X903019Y700296D01*
X903071Y700290D01*
X903121Y700275D01*
X903192Y700277D01*
X903263Y700269D01*
X903314Y700280D01*
X903366Y700281D01*
X903434Y700306D01*
X903504Y700321D01*
X903549Y700348D01*
X903597Y700366D01*
X903653Y700410D01*
X903715Y700447D01*
X903749Y700487D01*
X903789Y700519D01*
X903828Y700580D01*
X903875Y700634D01*
X903894Y700682D01*
X903922Y700726D01*
X903940Y700796D01*
X903967Y700862D01*
X903975Y700934D01*
X903983Y700965D01*
X903981Y700988D01*
X903985Y701029D01*
X903985Y704353D01*
X903971Y704443D01*
X903963Y704534D01*
X903951Y704564D01*
X903946Y704596D01*
X903903Y704676D01*
X903867Y704760D01*
X903841Y704793D01*
X903830Y704813D01*
X903807Y704835D01*
X903762Y704891D01*
X901981Y706672D01*
X901981Y710648D01*
X904792Y713459D01*
X908840Y713459D01*
X908860Y713462D01*
X908879Y713460D01*
X908981Y713482D01*
X909083Y713498D01*
X909100Y713508D01*
X909120Y713512D01*
X909209Y713565D01*
X909300Y713614D01*
X909314Y713628D01*
X909331Y713638D01*
X909398Y713717D01*
X909470Y713792D01*
X909478Y713810D01*
X909491Y713825D01*
X909530Y713921D01*
X909573Y714015D01*
X909575Y714035D01*
X909583Y714053D01*
X909601Y714220D01*
X909601Y715541D01*
X909587Y715631D01*
X909579Y715722D01*
X909567Y715752D01*
X909562Y715784D01*
X909519Y715864D01*
X909483Y715948D01*
X909457Y715980D01*
X909446Y716001D01*
X909423Y716023D01*
X909378Y716079D01*
X879175Y746282D01*
X879101Y746335D01*
X879032Y746395D01*
X879002Y746407D01*
X878976Y746426D01*
X878889Y746453D01*
X878804Y746487D01*
X878763Y746491D01*
X878741Y746498D01*
X878708Y746497D01*
X878637Y746505D01*
X825703Y746505D01*
X825613Y746491D01*
X825522Y746483D01*
X825492Y746471D01*
X825460Y746466D01*
X825380Y746423D01*
X825296Y746387D01*
X825264Y746361D01*
X825243Y746350D01*
X825221Y746327D01*
X825165Y746282D01*
X789097Y710214D01*
X789055Y710156D01*
X789005Y710104D01*
X788983Y710057D01*
X788953Y710015D01*
X788932Y709946D01*
X788902Y709881D01*
X788896Y709829D01*
X788881Y709779D01*
X788883Y709708D01*
X788875Y709637D01*
X788886Y709586D01*
X788887Y709534D01*
X788912Y709466D01*
X788927Y709396D01*
X788954Y709351D01*
X788972Y709303D01*
X789016Y709247D01*
X789053Y709185D01*
X789093Y709151D01*
X789125Y709111D01*
X789186Y709072D01*
X789240Y709025D01*
X789288Y709006D01*
X789332Y708978D01*
X789402Y708960D01*
X789468Y708933D01*
X789540Y708925D01*
X789571Y708917D01*
X789594Y708919D01*
X789635Y708915D01*
X862218Y708915D01*
X890471Y680662D01*
X890545Y680609D01*
X890614Y680549D01*
X890644Y680537D01*
X890670Y680518D01*
X890757Y680491D01*
X890842Y680457D01*
X890883Y680453D01*
X890905Y680446D01*
X890938Y680447D01*
X891009Y680439D01*
X893528Y680439D01*
X895066Y678901D01*
X895124Y678859D01*
X895176Y678809D01*
X895223Y678788D01*
X895265Y678757D01*
X895334Y678736D01*
X895399Y678706D01*
X895451Y678700D01*
X895501Y678685D01*
X895572Y678687D01*
X895643Y678679D01*
X895694Y678690D01*
G37*
%LPC*%
G36*
X554272Y112041D02*
X554272Y112041D01*
X552491Y113822D01*
X552417Y113875D01*
X552348Y113935D01*
X552318Y113947D01*
X552292Y113966D01*
X552205Y113993D01*
X552120Y114027D01*
X552079Y114031D01*
X552056Y114038D01*
X552024Y114037D01*
X551953Y114045D01*
X518272Y114045D01*
X516635Y115682D01*
X516635Y128524D01*
X516632Y128544D01*
X516634Y128563D01*
X516612Y128665D01*
X516596Y128767D01*
X516586Y128784D01*
X516582Y128804D01*
X516529Y128893D01*
X516480Y128984D01*
X516466Y128998D01*
X516456Y129015D01*
X516377Y129082D01*
X516302Y129154D01*
X516284Y129162D01*
X516269Y129175D01*
X516173Y129214D01*
X516079Y129257D01*
X516059Y129259D01*
X516041Y129267D01*
X515874Y129285D01*
X251731Y129285D01*
X251660Y129274D01*
X251588Y129272D01*
X251539Y129254D01*
X251488Y129246D01*
X251425Y129212D01*
X251357Y129187D01*
X251317Y129155D01*
X251271Y129130D01*
X251222Y129079D01*
X251165Y129034D01*
X251137Y128990D01*
X251101Y128952D01*
X251071Y128887D01*
X251032Y128827D01*
X251020Y128776D01*
X250998Y128729D01*
X250990Y128658D01*
X250972Y128588D01*
X250976Y128536D01*
X250971Y128485D01*
X250986Y128414D01*
X250992Y128343D01*
X251012Y128295D01*
X251023Y128244D01*
X251060Y128183D01*
X251088Y128117D01*
X251133Y128061D01*
X251149Y128033D01*
X251167Y128018D01*
X251179Y128003D01*
X251179Y124024D01*
X248368Y121213D01*
X244392Y121213D01*
X242865Y122740D01*
X242791Y122793D01*
X242722Y122853D01*
X242692Y122865D01*
X242666Y122884D01*
X242579Y122911D01*
X242494Y122945D01*
X242453Y122949D01*
X242430Y122956D01*
X242398Y122955D01*
X242327Y122963D01*
X217413Y122963D01*
X217323Y122949D01*
X217232Y122941D01*
X217202Y122929D01*
X217170Y122924D01*
X217090Y122881D01*
X217006Y122845D01*
X216974Y122819D01*
X216953Y122808D01*
X216931Y122785D01*
X216875Y122740D01*
X215348Y121213D01*
X211372Y121213D01*
X208561Y124024D01*
X208561Y128005D01*
X208589Y128044D01*
X208639Y128096D01*
X208660Y128143D01*
X208691Y128185D01*
X208712Y128254D01*
X208742Y128319D01*
X208748Y128371D01*
X208763Y128420D01*
X208761Y128492D01*
X208769Y128563D01*
X208758Y128614D01*
X208757Y128666D01*
X208732Y128734D01*
X208717Y128804D01*
X208690Y128849D01*
X208672Y128897D01*
X208628Y128953D01*
X208591Y129015D01*
X208551Y129049D01*
X208519Y129089D01*
X208458Y129128D01*
X208404Y129175D01*
X208356Y129194D01*
X208312Y129222D01*
X208242Y129240D01*
X208176Y129267D01*
X208105Y129275D01*
X208073Y129283D01*
X208050Y129281D01*
X208009Y129285D01*
X91937Y129285D01*
X91847Y129271D01*
X91756Y129263D01*
X91726Y129251D01*
X91694Y129246D01*
X91614Y129203D01*
X91530Y129167D01*
X91498Y129141D01*
X91477Y129130D01*
X91455Y129107D01*
X91399Y129062D01*
X89618Y127281D01*
X85642Y127281D01*
X82831Y130092D01*
X82831Y134068D01*
X85642Y136879D01*
X89618Y136879D01*
X91399Y135098D01*
X91473Y135045D01*
X91542Y134985D01*
X91572Y134973D01*
X91598Y134954D01*
X91685Y134927D01*
X91770Y134893D01*
X91811Y134889D01*
X91834Y134882D01*
X91866Y134883D01*
X91937Y134875D01*
X520588Y134875D01*
X522225Y133238D01*
X522225Y120396D01*
X522228Y120376D01*
X522226Y120357D01*
X522248Y120255D01*
X522264Y120153D01*
X522274Y120136D01*
X522278Y120116D01*
X522331Y120027D01*
X522380Y119936D01*
X522394Y119922D01*
X522404Y119905D01*
X522483Y119838D01*
X522558Y119766D01*
X522576Y119758D01*
X522591Y119745D01*
X522687Y119706D01*
X522781Y119663D01*
X522801Y119661D01*
X522819Y119653D01*
X522986Y119635D01*
X551953Y119635D01*
X552043Y119649D01*
X552134Y119657D01*
X552164Y119669D01*
X552196Y119674D01*
X552276Y119717D01*
X552360Y119753D01*
X552392Y119779D01*
X552413Y119790D01*
X552435Y119813D01*
X552491Y119858D01*
X554272Y121639D01*
X558248Y121639D01*
X561059Y118828D01*
X561059Y114852D01*
X558248Y112041D01*
X554272Y112041D01*
G37*
%LPD*%
G36*
X895694Y664720D02*
X895694Y664720D01*
X895746Y664721D01*
X895814Y664746D01*
X895884Y664761D01*
X895929Y664788D01*
X895977Y664806D01*
X896033Y664850D01*
X896095Y664887D01*
X896129Y664927D01*
X896169Y664959D01*
X896208Y665020D01*
X896255Y665074D01*
X896274Y665122D01*
X896302Y665166D01*
X896320Y665236D01*
X896347Y665302D01*
X896355Y665374D01*
X896363Y665405D01*
X896361Y665428D01*
X896365Y665469D01*
X896365Y671841D01*
X896354Y671912D01*
X896352Y671983D01*
X896334Y672032D01*
X896326Y672084D01*
X896292Y672147D01*
X896267Y672214D01*
X896235Y672255D01*
X896210Y672301D01*
X896158Y672351D01*
X896114Y672407D01*
X896070Y672435D01*
X896032Y672471D01*
X895967Y672501D01*
X895907Y672540D01*
X895856Y672552D01*
X895809Y672574D01*
X895738Y672582D01*
X895668Y672600D01*
X895616Y672596D01*
X895565Y672601D01*
X895494Y672586D01*
X895423Y672580D01*
X895375Y672560D01*
X895324Y672549D01*
X895263Y672512D01*
X895197Y672484D01*
X895141Y672439D01*
X895113Y672423D01*
X895098Y672405D01*
X895066Y672379D01*
X893528Y670841D01*
X889552Y670841D01*
X886741Y673652D01*
X886741Y676171D01*
X886727Y676261D01*
X886719Y676352D01*
X886707Y676382D01*
X886702Y676414D01*
X886659Y676494D01*
X886623Y676578D01*
X886597Y676610D01*
X886586Y676631D01*
X886563Y676653D01*
X886518Y676709D01*
X860125Y703102D01*
X860051Y703155D01*
X859982Y703215D01*
X859952Y703227D01*
X859926Y703246D01*
X859839Y703273D01*
X859754Y703307D01*
X859713Y703311D01*
X859691Y703318D01*
X859658Y703317D01*
X859587Y703325D01*
X791413Y703325D01*
X791323Y703311D01*
X791232Y703303D01*
X791202Y703291D01*
X791170Y703286D01*
X791090Y703243D01*
X791006Y703207D01*
X790974Y703181D01*
X790953Y703170D01*
X790931Y703147D01*
X790875Y703102D01*
X780938Y693165D01*
X674867Y693165D01*
X674777Y693151D01*
X674686Y693143D01*
X674656Y693131D01*
X674624Y693126D01*
X674544Y693083D01*
X674460Y693047D01*
X674428Y693021D01*
X674407Y693010D01*
X674385Y692987D01*
X674329Y692942D01*
X672805Y691418D01*
X672793Y691402D01*
X672778Y691390D01*
X672721Y691302D01*
X672661Y691219D01*
X672655Y691200D01*
X672645Y691183D01*
X672619Y691082D01*
X672589Y690983D01*
X672589Y690964D01*
X672584Y690944D01*
X672592Y690841D01*
X672595Y690738D01*
X672602Y690719D01*
X672604Y690699D01*
X672644Y690604D01*
X672680Y690507D01*
X672692Y690491D01*
X672700Y690473D01*
X672805Y690342D01*
X674329Y688818D01*
X674403Y688765D01*
X674472Y688705D01*
X674502Y688693D01*
X674528Y688674D01*
X674615Y688647D01*
X674700Y688613D01*
X674741Y688609D01*
X674764Y688602D01*
X674796Y688603D01*
X674867Y688595D01*
X775858Y688595D01*
X787065Y677388D01*
X787139Y677335D01*
X787208Y677275D01*
X787238Y677263D01*
X787264Y677244D01*
X787351Y677217D01*
X787436Y677183D01*
X787477Y677179D01*
X787499Y677172D01*
X787532Y677173D01*
X787603Y677165D01*
X879998Y677165D01*
X890471Y666692D01*
X890545Y666639D01*
X890614Y666579D01*
X890644Y666567D01*
X890670Y666548D01*
X890757Y666521D01*
X890842Y666487D01*
X890883Y666483D01*
X890905Y666476D01*
X890938Y666477D01*
X891009Y666469D01*
X893528Y666469D01*
X895066Y664931D01*
X895124Y664889D01*
X895176Y664839D01*
X895223Y664818D01*
X895265Y664787D01*
X895334Y664766D01*
X895399Y664736D01*
X895451Y664730D01*
X895501Y664715D01*
X895572Y664717D01*
X895643Y664709D01*
X895694Y664720D01*
G37*
%LPC*%
G36*
X201212Y366041D02*
X201212Y366041D01*
X198401Y368852D01*
X198401Y372828D01*
X201212Y375639D01*
X205188Y375639D01*
X206969Y373858D01*
X207043Y373805D01*
X207112Y373745D01*
X207142Y373733D01*
X207168Y373714D01*
X207255Y373687D01*
X207340Y373653D01*
X207381Y373649D01*
X207404Y373642D01*
X207436Y373643D01*
X207507Y373635D01*
X579374Y373635D01*
X579394Y373638D01*
X579413Y373636D01*
X579515Y373658D01*
X579617Y373674D01*
X579634Y373684D01*
X579654Y373688D01*
X579743Y373741D01*
X579834Y373790D01*
X579848Y373804D01*
X579865Y373814D01*
X579932Y373893D01*
X580004Y373968D01*
X580012Y373986D01*
X580025Y374001D01*
X580064Y374097D01*
X580107Y374191D01*
X580109Y374211D01*
X580117Y374229D01*
X580135Y374396D01*
X580135Y424068D01*
X581772Y425705D01*
X602234Y425705D01*
X602254Y425708D01*
X602273Y425706D01*
X602375Y425728D01*
X602477Y425744D01*
X602494Y425754D01*
X602514Y425758D01*
X602603Y425811D01*
X602694Y425860D01*
X602708Y425874D01*
X602725Y425884D01*
X602792Y425963D01*
X602864Y426038D01*
X602872Y426056D01*
X602885Y426071D01*
X602924Y426167D01*
X602967Y426261D01*
X602969Y426281D01*
X602977Y426299D01*
X602995Y426466D01*
X602995Y456703D01*
X602981Y456793D01*
X602973Y456884D01*
X602961Y456914D01*
X602956Y456946D01*
X602913Y457026D01*
X602877Y457110D01*
X602851Y457142D01*
X602840Y457163D01*
X602817Y457185D01*
X602772Y457241D01*
X600991Y459022D01*
X600991Y462998D01*
X603802Y465809D01*
X607778Y465809D01*
X610589Y462998D01*
X610589Y459022D01*
X608808Y457241D01*
X608755Y457167D01*
X608695Y457098D01*
X608683Y457068D01*
X608664Y457042D01*
X608637Y456955D01*
X608603Y456870D01*
X608599Y456829D01*
X608592Y456806D01*
X608593Y456774D01*
X608585Y456703D01*
X608585Y421752D01*
X606948Y420115D01*
X586486Y420115D01*
X586466Y420112D01*
X586447Y420114D01*
X586345Y420092D01*
X586243Y420076D01*
X586226Y420066D01*
X586206Y420062D01*
X586117Y420009D01*
X586026Y419960D01*
X586012Y419946D01*
X585995Y419936D01*
X585928Y419857D01*
X585856Y419782D01*
X585848Y419764D01*
X585835Y419749D01*
X585796Y419653D01*
X585753Y419559D01*
X585751Y419539D01*
X585743Y419521D01*
X585725Y419354D01*
X585725Y369682D01*
X584088Y368045D01*
X207507Y368045D01*
X207417Y368031D01*
X207326Y368023D01*
X207296Y368011D01*
X207264Y368006D01*
X207184Y367963D01*
X207100Y367927D01*
X207068Y367901D01*
X207047Y367890D01*
X207025Y367867D01*
X206969Y367822D01*
X205188Y366041D01*
X201212Y366041D01*
G37*
%LPD*%
%LPC*%
G36*
X604678Y122681D02*
X604678Y122681D01*
X602624Y123532D01*
X601052Y125104D01*
X600201Y127158D01*
X600201Y287274D01*
X600200Y287283D01*
X600200Y287288D01*
X600198Y287296D01*
X600200Y287313D01*
X600178Y287415D01*
X600162Y287517D01*
X600152Y287534D01*
X600148Y287554D01*
X600095Y287643D01*
X600046Y287734D01*
X600032Y287748D01*
X600022Y287765D01*
X599943Y287832D01*
X599868Y287904D01*
X599850Y287912D01*
X599835Y287925D01*
X599739Y287964D01*
X599645Y288007D01*
X599625Y288009D01*
X599607Y288017D01*
X599440Y288035D01*
X596351Y288035D01*
X592990Y289427D01*
X590417Y292000D01*
X589025Y295361D01*
X589025Y298999D01*
X590417Y302360D01*
X592990Y304933D01*
X596351Y306325D01*
X615229Y306325D01*
X618590Y304933D01*
X621163Y302360D01*
X622555Y298999D01*
X622555Y295361D01*
X621163Y292000D01*
X618590Y289427D01*
X615229Y288035D01*
X612140Y288035D01*
X612120Y288032D01*
X612101Y288034D01*
X611999Y288012D01*
X611897Y287996D01*
X611880Y287986D01*
X611860Y287982D01*
X611771Y287929D01*
X611680Y287880D01*
X611666Y287866D01*
X611649Y287856D01*
X611582Y287777D01*
X611510Y287702D01*
X611502Y287684D01*
X611489Y287669D01*
X611450Y287573D01*
X611407Y287479D01*
X611405Y287459D01*
X611397Y287441D01*
X611379Y287274D01*
X611379Y127158D01*
X610528Y125104D01*
X608956Y123532D01*
X606902Y122681D01*
X604678Y122681D01*
G37*
%LPD*%
%LPC*%
G36*
X807002Y272061D02*
X807002Y272061D01*
X804191Y274872D01*
X804191Y278848D01*
X805972Y280629D01*
X806015Y280689D01*
X806055Y280730D01*
X806062Y280745D01*
X806085Y280772D01*
X806097Y280802D01*
X806116Y280828D01*
X806143Y280915D01*
X806154Y280945D01*
X806158Y280953D01*
X806159Y280955D01*
X806177Y281000D01*
X806181Y281041D01*
X806188Y281064D01*
X806187Y281096D01*
X806195Y281167D01*
X806195Y363993D01*
X806181Y364083D01*
X806173Y364174D01*
X806161Y364204D01*
X806156Y364236D01*
X806113Y364316D01*
X806077Y364400D01*
X806051Y364432D01*
X806040Y364453D01*
X806017Y364475D01*
X805972Y364531D01*
X804191Y366312D01*
X804191Y370288D01*
X805972Y372069D01*
X806025Y372143D01*
X806085Y372212D01*
X806097Y372242D01*
X806116Y372268D01*
X806143Y372355D01*
X806177Y372440D01*
X806181Y372481D01*
X806188Y372504D01*
X806187Y372536D01*
X806195Y372607D01*
X806195Y456703D01*
X806181Y456793D01*
X806173Y456884D01*
X806161Y456914D01*
X806156Y456946D01*
X806113Y457026D01*
X806077Y457110D01*
X806051Y457142D01*
X806040Y457163D01*
X806017Y457185D01*
X805972Y457241D01*
X804191Y459022D01*
X804191Y462998D01*
X805972Y464779D01*
X806025Y464853D01*
X806085Y464922D01*
X806097Y464952D01*
X806116Y464978D01*
X806143Y465065D01*
X806177Y465150D01*
X806181Y465191D01*
X806188Y465214D01*
X806187Y465246D01*
X806195Y465317D01*
X806195Y600213D01*
X806181Y600303D01*
X806173Y600394D01*
X806161Y600424D01*
X806156Y600456D01*
X806113Y600536D01*
X806077Y600620D01*
X806051Y600652D01*
X806040Y600673D01*
X806017Y600695D01*
X805972Y600751D01*
X804191Y602532D01*
X804191Y606508D01*
X807002Y609319D01*
X810978Y609319D01*
X813789Y606508D01*
X813789Y602532D01*
X812008Y600751D01*
X811955Y600677D01*
X811895Y600608D01*
X811883Y600578D01*
X811864Y600552D01*
X811837Y600465D01*
X811803Y600380D01*
X811799Y600339D01*
X811792Y600316D01*
X811793Y600284D01*
X811785Y600213D01*
X811785Y465317D01*
X811799Y465227D01*
X811807Y465136D01*
X811819Y465106D01*
X811824Y465074D01*
X811867Y464994D01*
X811903Y464910D01*
X811929Y464877D01*
X811940Y464857D01*
X811963Y464835D01*
X812008Y464779D01*
X813789Y462998D01*
X813789Y459022D01*
X812008Y457241D01*
X811955Y457167D01*
X811895Y457098D01*
X811883Y457068D01*
X811864Y457042D01*
X811837Y456955D01*
X811803Y456870D01*
X811799Y456829D01*
X811792Y456806D01*
X811793Y456774D01*
X811785Y456703D01*
X811785Y372607D01*
X811799Y372517D01*
X811807Y372426D01*
X811819Y372396D01*
X811824Y372364D01*
X811867Y372284D01*
X811903Y372200D01*
X811929Y372168D01*
X811940Y372147D01*
X811963Y372125D01*
X812008Y372069D01*
X813789Y370288D01*
X813789Y366312D01*
X812008Y364531D01*
X811955Y364457D01*
X811895Y364388D01*
X811883Y364358D01*
X811864Y364332D01*
X811837Y364245D01*
X811803Y364160D01*
X811799Y364119D01*
X811792Y364096D01*
X811793Y364064D01*
X811785Y363993D01*
X811785Y281167D01*
X811799Y281077D01*
X811807Y280986D01*
X811819Y280956D01*
X811824Y280924D01*
X811845Y280885D01*
X811847Y280878D01*
X811864Y280850D01*
X811867Y280844D01*
X811903Y280760D01*
X811929Y280728D01*
X811940Y280707D01*
X811962Y280685D01*
X811973Y280667D01*
X811985Y280657D01*
X812008Y280629D01*
X813789Y278848D01*
X813789Y274872D01*
X810978Y272061D01*
X807002Y272061D01*
G37*
%LPD*%
%LPC*%
G36*
X255428Y605281D02*
X255428Y605281D01*
X253374Y606132D01*
X251802Y607704D01*
X250951Y609758D01*
X250951Y611982D01*
X251802Y614036D01*
X253374Y615608D01*
X255428Y616459D01*
X370682Y616459D01*
X372736Y615608D01*
X374308Y614036D01*
X375159Y611982D01*
X375159Y609758D01*
X374308Y607704D01*
X372736Y606132D01*
X370682Y605281D01*
X255428Y605281D01*
G37*
%LPD*%
%LPC*%
G36*
X26113Y10459D02*
X26113Y10459D01*
X18931Y13434D01*
X13434Y18931D01*
X10459Y26113D01*
X10459Y33887D01*
X13434Y41069D01*
X18931Y46566D01*
X26113Y49541D01*
X33887Y49541D01*
X41069Y46566D01*
X46566Y41069D01*
X49541Y33887D01*
X49541Y26113D01*
X46566Y18931D01*
X41069Y13434D01*
X33887Y10459D01*
X26113Y10459D01*
G37*
%LPD*%
%LPC*%
G36*
X966113Y750459D02*
X966113Y750459D01*
X958931Y753434D01*
X953434Y758931D01*
X950459Y766113D01*
X950459Y773887D01*
X953434Y781069D01*
X958931Y786566D01*
X966113Y789541D01*
X973887Y789541D01*
X981069Y786566D01*
X986566Y781069D01*
X989541Y773887D01*
X989541Y766113D01*
X986566Y758931D01*
X981069Y753434D01*
X973887Y750459D01*
X966113Y750459D01*
G37*
%LPD*%
%LPC*%
G36*
X966113Y10459D02*
X966113Y10459D01*
X958931Y13434D01*
X953434Y18931D01*
X950459Y26113D01*
X950459Y33887D01*
X953434Y41069D01*
X958931Y46566D01*
X966113Y49541D01*
X973887Y49541D01*
X981069Y46566D01*
X986566Y41069D01*
X989541Y33887D01*
X989541Y26113D01*
X986566Y18931D01*
X981069Y13434D01*
X973887Y10459D01*
X966113Y10459D01*
G37*
%LPD*%
%LPC*%
G36*
X26113Y750459D02*
X26113Y750459D01*
X18931Y753434D01*
X13434Y758931D01*
X10459Y766113D01*
X10459Y773887D01*
X13434Y781069D01*
X18931Y786566D01*
X26113Y789541D01*
X33887Y789541D01*
X41069Y786566D01*
X46566Y781069D01*
X49541Y773887D01*
X49541Y766113D01*
X46566Y758931D01*
X41069Y753434D01*
X33887Y750459D01*
X26113Y750459D01*
G37*
%LPD*%
%LPC*%
G36*
X142792Y419381D02*
X142792Y419381D01*
X139981Y422192D01*
X139981Y426168D01*
X141762Y427949D01*
X141815Y428023D01*
X141875Y428092D01*
X141887Y428122D01*
X141906Y428148D01*
X141933Y428235D01*
X141967Y428320D01*
X141971Y428361D01*
X141978Y428384D01*
X141977Y428416D01*
X141985Y428487D01*
X141985Y588783D01*
X141971Y588873D01*
X141963Y588964D01*
X141951Y588994D01*
X141946Y589026D01*
X141903Y589106D01*
X141867Y589190D01*
X141841Y589222D01*
X141830Y589243D01*
X141807Y589265D01*
X141762Y589321D01*
X139981Y591102D01*
X139981Y595078D01*
X142792Y597889D01*
X146768Y597889D01*
X149579Y595078D01*
X149579Y591102D01*
X147798Y589321D01*
X147745Y589247D01*
X147685Y589178D01*
X147673Y589148D01*
X147654Y589122D01*
X147627Y589035D01*
X147593Y588950D01*
X147589Y588909D01*
X147582Y588886D01*
X147583Y588854D01*
X147575Y588783D01*
X147575Y428487D01*
X147589Y428397D01*
X147597Y428306D01*
X147609Y428276D01*
X147614Y428244D01*
X147657Y428164D01*
X147693Y428080D01*
X147719Y428048D01*
X147730Y428027D01*
X147753Y428005D01*
X147798Y427949D01*
X149579Y426168D01*
X149579Y422192D01*
X146768Y419381D01*
X142792Y419381D01*
G37*
%LPD*%
%LPC*%
G36*
X324008Y214121D02*
X324008Y214121D01*
X321954Y214972D01*
X320382Y216544D01*
X319531Y218598D01*
X319531Y303372D01*
X320382Y305426D01*
X321954Y306998D01*
X324008Y307849D01*
X326232Y307849D01*
X328286Y306998D01*
X329858Y305426D01*
X330709Y303372D01*
X330709Y218598D01*
X329858Y216544D01*
X328286Y214972D01*
X326232Y214121D01*
X324008Y214121D01*
G37*
%LPD*%
%LPC*%
G36*
X248202Y35841D02*
X248202Y35841D01*
X246421Y37622D01*
X246347Y37675D01*
X246278Y37735D01*
X246248Y37747D01*
X246222Y37766D01*
X246135Y37793D01*
X246050Y37827D01*
X246009Y37831D01*
X245986Y37838D01*
X245954Y37837D01*
X245883Y37845D01*
X143622Y37845D01*
X141985Y39482D01*
X141985Y67801D01*
X141971Y67891D01*
X141963Y67982D01*
X141951Y68012D01*
X141946Y68044D01*
X141903Y68124D01*
X141867Y68208D01*
X141841Y68240D01*
X141830Y68261D01*
X141807Y68283D01*
X141762Y68339D01*
X139981Y70120D01*
X139981Y74096D01*
X142792Y76907D01*
X146768Y76907D01*
X149579Y74096D01*
X149579Y70120D01*
X147798Y68339D01*
X147745Y68265D01*
X147685Y68196D01*
X147673Y68166D01*
X147654Y68140D01*
X147627Y68053D01*
X147593Y67968D01*
X147589Y67927D01*
X147582Y67904D01*
X147583Y67872D01*
X147575Y67801D01*
X147575Y44196D01*
X147578Y44176D01*
X147576Y44157D01*
X147598Y44055D01*
X147614Y43953D01*
X147624Y43936D01*
X147628Y43916D01*
X147681Y43827D01*
X147730Y43736D01*
X147744Y43722D01*
X147754Y43705D01*
X147833Y43638D01*
X147908Y43566D01*
X147926Y43558D01*
X147941Y43545D01*
X148037Y43506D01*
X148131Y43463D01*
X148151Y43461D01*
X148169Y43453D01*
X148336Y43435D01*
X245883Y43435D01*
X245973Y43449D01*
X246064Y43457D01*
X246094Y43469D01*
X246126Y43474D01*
X246206Y43517D01*
X246290Y43553D01*
X246322Y43579D01*
X246343Y43590D01*
X246365Y43613D01*
X246421Y43658D01*
X248202Y45439D01*
X252178Y45439D01*
X254989Y42628D01*
X254989Y38652D01*
X252178Y35841D01*
X248202Y35841D01*
G37*
%LPD*%
%LPC*%
G36*
X521252Y202211D02*
X521252Y202211D01*
X518441Y205022D01*
X518441Y208998D01*
X519968Y210525D01*
X520021Y210599D01*
X520081Y210668D01*
X520093Y210698D01*
X520112Y210724D01*
X520139Y210811D01*
X520173Y210896D01*
X520177Y210937D01*
X520184Y210960D01*
X520183Y210992D01*
X520191Y211063D01*
X520191Y275583D01*
X521977Y277369D01*
X547370Y277369D01*
X547390Y277372D01*
X547409Y277370D01*
X547511Y277392D01*
X547613Y277408D01*
X547630Y277418D01*
X547650Y277422D01*
X547739Y277475D01*
X547830Y277524D01*
X547844Y277538D01*
X547861Y277548D01*
X547928Y277627D01*
X548000Y277702D01*
X548008Y277720D01*
X548021Y277735D01*
X548060Y277831D01*
X548103Y277925D01*
X548105Y277945D01*
X548113Y277963D01*
X548131Y278130D01*
X548131Y299477D01*
X548117Y299567D01*
X548109Y299658D01*
X548097Y299688D01*
X548092Y299720D01*
X548049Y299800D01*
X548013Y299884D01*
X547987Y299916D01*
X547976Y299937D01*
X547953Y299959D01*
X547908Y300015D01*
X546381Y301542D01*
X546381Y305518D01*
X549192Y308329D01*
X553168Y308329D01*
X555979Y305518D01*
X555979Y301542D01*
X554452Y300015D01*
X554399Y299941D01*
X554339Y299872D01*
X554327Y299842D01*
X554308Y299816D01*
X554281Y299729D01*
X554247Y299644D01*
X554243Y299603D01*
X554236Y299580D01*
X554237Y299548D01*
X554229Y299477D01*
X554229Y273057D01*
X552443Y271271D01*
X527050Y271271D01*
X527030Y271268D01*
X527011Y271270D01*
X526909Y271248D01*
X526807Y271232D01*
X526790Y271222D01*
X526770Y271218D01*
X526681Y271165D01*
X526590Y271116D01*
X526576Y271102D01*
X526559Y271092D01*
X526492Y271013D01*
X526420Y270938D01*
X526412Y270920D01*
X526399Y270905D01*
X526360Y270809D01*
X526317Y270715D01*
X526315Y270695D01*
X526307Y270677D01*
X526289Y270510D01*
X526289Y211063D01*
X526303Y210973D01*
X526311Y210882D01*
X526323Y210852D01*
X526328Y210820D01*
X526371Y210740D01*
X526407Y210656D01*
X526433Y210624D01*
X526444Y210603D01*
X526467Y210581D01*
X526512Y210525D01*
X528039Y208998D01*
X528039Y205022D01*
X525228Y202211D01*
X521252Y202211D01*
G37*
%LPD*%
%LPC*%
G36*
X328212Y63781D02*
X328212Y63781D01*
X325401Y66592D01*
X325401Y68834D01*
X325398Y68854D01*
X325400Y68873D01*
X325378Y68974D01*
X325362Y69077D01*
X325352Y69094D01*
X325348Y69114D01*
X325295Y69203D01*
X325246Y69294D01*
X325232Y69308D01*
X325222Y69325D01*
X325143Y69392D01*
X325068Y69464D01*
X325050Y69472D01*
X325035Y69485D01*
X324939Y69524D01*
X324845Y69567D01*
X324825Y69569D01*
X324807Y69577D01*
X324640Y69595D01*
X204967Y69595D01*
X204877Y69581D01*
X204786Y69573D01*
X204756Y69561D01*
X204724Y69556D01*
X204644Y69513D01*
X204560Y69477D01*
X204528Y69451D01*
X204507Y69440D01*
X204485Y69417D01*
X204429Y69372D01*
X202648Y67591D01*
X198672Y67591D01*
X195861Y70402D01*
X195861Y74378D01*
X198672Y77189D01*
X202648Y77189D01*
X204429Y75408D01*
X204503Y75355D01*
X204572Y75295D01*
X204602Y75283D01*
X204628Y75264D01*
X204715Y75237D01*
X204800Y75203D01*
X204841Y75199D01*
X204864Y75192D01*
X204896Y75193D01*
X204967Y75185D01*
X331358Y75185D01*
X332995Y73548D01*
X332995Y72887D01*
X333009Y72797D01*
X333017Y72706D01*
X333029Y72676D01*
X333034Y72644D01*
X333077Y72564D01*
X333113Y72480D01*
X333139Y72448D01*
X333150Y72427D01*
X333173Y72405D01*
X333218Y72349D01*
X334999Y70568D01*
X334999Y66592D01*
X332188Y63781D01*
X328212Y63781D01*
G37*
%LPD*%
%LPC*%
G36*
X862882Y479071D02*
X862882Y479071D01*
X860071Y481882D01*
X860071Y485858D01*
X861852Y487639D01*
X861905Y487713D01*
X861965Y487782D01*
X861977Y487812D01*
X861996Y487838D01*
X862023Y487925D01*
X862057Y488010D01*
X862061Y488051D01*
X862068Y488074D01*
X862067Y488106D01*
X862075Y488177D01*
X862075Y519227D01*
X862061Y519317D01*
X862053Y519408D01*
X862041Y519438D01*
X862036Y519470D01*
X861993Y519550D01*
X861957Y519634D01*
X861931Y519666D01*
X861920Y519687D01*
X861897Y519709D01*
X861852Y519765D01*
X821489Y560128D01*
X821415Y560181D01*
X821346Y560241D01*
X821316Y560253D01*
X821290Y560272D01*
X821203Y560299D01*
X821118Y560333D01*
X821077Y560337D01*
X821055Y560344D01*
X821022Y560343D01*
X820951Y560351D01*
X818432Y560351D01*
X815621Y563162D01*
X815621Y567138D01*
X818432Y569949D01*
X822408Y569949D01*
X825219Y567138D01*
X825219Y564619D01*
X825233Y564529D01*
X825241Y564438D01*
X825253Y564408D01*
X825258Y564376D01*
X825301Y564296D01*
X825337Y564212D01*
X825363Y564180D01*
X825374Y564159D01*
X825397Y564137D01*
X825442Y564081D01*
X867665Y521858D01*
X867665Y488177D01*
X867679Y488087D01*
X867687Y487996D01*
X867699Y487966D01*
X867704Y487934D01*
X867747Y487854D01*
X867783Y487770D01*
X867809Y487738D01*
X867820Y487717D01*
X867843Y487695D01*
X867888Y487639D01*
X869669Y485858D01*
X869669Y481882D01*
X866858Y479071D01*
X862882Y479071D01*
G37*
%LPD*%
%LPC*%
G36*
X640632Y363501D02*
X640632Y363501D01*
X637821Y366312D01*
X637821Y370288D01*
X640632Y373099D01*
X644608Y373099D01*
X645119Y372588D01*
X645193Y372535D01*
X645262Y372475D01*
X645292Y372463D01*
X645318Y372444D01*
X645405Y372417D01*
X645490Y372383D01*
X645531Y372379D01*
X645554Y372372D01*
X645586Y372373D01*
X645657Y372365D01*
X709433Y372365D01*
X709523Y372379D01*
X709614Y372387D01*
X709644Y372399D01*
X709676Y372404D01*
X709756Y372447D01*
X709840Y372483D01*
X709872Y372509D01*
X709893Y372520D01*
X709915Y372543D01*
X709971Y372588D01*
X710482Y373099D01*
X714458Y373099D01*
X717269Y370288D01*
X717269Y366312D01*
X714458Y363501D01*
X710482Y363501D01*
X709971Y364012D01*
X709897Y364065D01*
X709828Y364125D01*
X709798Y364137D01*
X709772Y364156D01*
X709685Y364183D01*
X709600Y364217D01*
X709559Y364221D01*
X709536Y364228D01*
X709504Y364227D01*
X709433Y364235D01*
X645657Y364235D01*
X645567Y364221D01*
X645476Y364213D01*
X645446Y364201D01*
X645414Y364196D01*
X645334Y364153D01*
X645250Y364117D01*
X645218Y364091D01*
X645197Y364080D01*
X645175Y364057D01*
X645119Y364012D01*
X644608Y363501D01*
X640632Y363501D01*
G37*
%LPD*%
%LPC*%
G36*
X640632Y457481D02*
X640632Y457481D01*
X637821Y460292D01*
X637821Y464268D01*
X640632Y467079D01*
X644608Y467079D01*
X645119Y466568D01*
X645193Y466515D01*
X645262Y466455D01*
X645292Y466443D01*
X645318Y466424D01*
X645405Y466397D01*
X645490Y466363D01*
X645531Y466359D01*
X645554Y466352D01*
X645586Y466353D01*
X645657Y466345D01*
X709433Y466345D01*
X709523Y466359D01*
X709614Y466367D01*
X709644Y466379D01*
X709676Y466384D01*
X709756Y466427D01*
X709840Y466463D01*
X709872Y466489D01*
X709893Y466500D01*
X709915Y466523D01*
X709971Y466568D01*
X710482Y467079D01*
X714458Y467079D01*
X717269Y464268D01*
X717269Y460292D01*
X714458Y457481D01*
X710482Y457481D01*
X709971Y457992D01*
X709897Y458045D01*
X709828Y458105D01*
X709798Y458117D01*
X709772Y458136D01*
X709685Y458163D01*
X709600Y458197D01*
X709559Y458201D01*
X709536Y458208D01*
X709504Y458207D01*
X709433Y458215D01*
X645657Y458215D01*
X645567Y458201D01*
X645476Y458193D01*
X645446Y458181D01*
X645414Y458176D01*
X645334Y458133D01*
X645250Y458097D01*
X645218Y458071D01*
X645197Y458060D01*
X645175Y458037D01*
X645119Y457992D01*
X644608Y457481D01*
X640632Y457481D01*
G37*
%LPD*%
%LPC*%
G36*
X640632Y269521D02*
X640632Y269521D01*
X637821Y272332D01*
X637821Y276308D01*
X640632Y279119D01*
X644608Y279119D01*
X645119Y278608D01*
X645193Y278555D01*
X645262Y278495D01*
X645292Y278483D01*
X645318Y278464D01*
X645405Y278437D01*
X645490Y278403D01*
X645531Y278399D01*
X645554Y278392D01*
X645586Y278393D01*
X645657Y278385D01*
X709433Y278385D01*
X709523Y278399D01*
X709614Y278407D01*
X709644Y278419D01*
X709676Y278424D01*
X709756Y278467D01*
X709840Y278503D01*
X709872Y278529D01*
X709893Y278540D01*
X709915Y278563D01*
X709971Y278608D01*
X710482Y279119D01*
X714458Y279119D01*
X717269Y276308D01*
X717269Y272332D01*
X714458Y269521D01*
X710482Y269521D01*
X709971Y270032D01*
X709897Y270085D01*
X709828Y270145D01*
X709798Y270157D01*
X709772Y270176D01*
X709685Y270203D01*
X709600Y270237D01*
X709559Y270241D01*
X709536Y270248D01*
X709504Y270247D01*
X709433Y270255D01*
X645657Y270255D01*
X645567Y270241D01*
X645476Y270233D01*
X645446Y270221D01*
X645414Y270216D01*
X645334Y270173D01*
X645250Y270137D01*
X645218Y270111D01*
X645197Y270100D01*
X645175Y270077D01*
X645119Y270032D01*
X644608Y269521D01*
X640632Y269521D01*
G37*
%LPD*%
%LPC*%
G36*
X57702Y143791D02*
X57702Y143791D01*
X54891Y146602D01*
X54891Y150578D01*
X56672Y152359D01*
X56725Y152433D01*
X56785Y152502D01*
X56797Y152532D01*
X56816Y152558D01*
X56843Y152645D01*
X56877Y152730D01*
X56881Y152771D01*
X56888Y152794D01*
X56887Y152826D01*
X56895Y152897D01*
X56895Y163718D01*
X58532Y165355D01*
X110744Y165355D01*
X110764Y165358D01*
X110783Y165356D01*
X110885Y165378D01*
X110987Y165394D01*
X111004Y165404D01*
X111024Y165408D01*
X111113Y165461D01*
X111204Y165510D01*
X111218Y165524D01*
X111235Y165534D01*
X111302Y165613D01*
X111374Y165688D01*
X111382Y165706D01*
X111395Y165721D01*
X111434Y165817D01*
X111477Y165911D01*
X111479Y165931D01*
X111487Y165949D01*
X111505Y166116D01*
X111505Y174763D01*
X111491Y174853D01*
X111483Y174944D01*
X111471Y174974D01*
X111466Y175006D01*
X111423Y175086D01*
X111387Y175170D01*
X111361Y175202D01*
X111350Y175223D01*
X111327Y175245D01*
X111282Y175301D01*
X109501Y177082D01*
X109501Y181058D01*
X112312Y183869D01*
X116288Y183869D01*
X119099Y181058D01*
X119099Y177082D01*
X117318Y175301D01*
X117265Y175227D01*
X117205Y175158D01*
X117193Y175128D01*
X117174Y175102D01*
X117147Y175015D01*
X117113Y174930D01*
X117109Y174889D01*
X117102Y174866D01*
X117103Y174834D01*
X117095Y174763D01*
X117095Y161402D01*
X115458Y159765D01*
X63246Y159765D01*
X63226Y159762D01*
X63207Y159764D01*
X63105Y159742D01*
X63003Y159726D01*
X62986Y159716D01*
X62966Y159712D01*
X62877Y159659D01*
X62786Y159610D01*
X62772Y159596D01*
X62755Y159586D01*
X62688Y159507D01*
X62616Y159432D01*
X62608Y159414D01*
X62595Y159399D01*
X62556Y159303D01*
X62513Y159209D01*
X62511Y159189D01*
X62503Y159171D01*
X62485Y159004D01*
X62485Y152897D01*
X62499Y152807D01*
X62507Y152716D01*
X62519Y152686D01*
X62524Y152654D01*
X62567Y152574D01*
X62603Y152490D01*
X62629Y152458D01*
X62640Y152437D01*
X62663Y152415D01*
X62708Y152359D01*
X64489Y150578D01*
X64489Y146602D01*
X61678Y143791D01*
X57702Y143791D01*
G37*
%LPD*%
%LPC*%
G36*
X26121Y141985D02*
X26121Y141985D01*
X22760Y143377D01*
X20187Y145950D01*
X18795Y149311D01*
X18795Y152949D01*
X20187Y156310D01*
X22760Y158883D01*
X26121Y160275D01*
X44999Y160275D01*
X48360Y158883D01*
X50933Y156310D01*
X52325Y152949D01*
X52325Y149311D01*
X50933Y145950D01*
X48360Y143377D01*
X44999Y141985D01*
X26121Y141985D01*
G37*
%LPD*%
%LPC*%
G36*
X26121Y116585D02*
X26121Y116585D01*
X22760Y117977D01*
X20187Y120550D01*
X18795Y123911D01*
X18795Y127549D01*
X20187Y130910D01*
X22760Y133483D01*
X26121Y134875D01*
X44999Y134875D01*
X48360Y133483D01*
X50933Y130910D01*
X52325Y127549D01*
X52325Y123911D01*
X50933Y120550D01*
X48360Y117977D01*
X44999Y116585D01*
X26121Y116585D01*
G37*
%LPD*%
%LPC*%
G36*
X596351Y338835D02*
X596351Y338835D01*
X592990Y340227D01*
X590417Y342800D01*
X589025Y346161D01*
X589025Y349799D01*
X590417Y353160D01*
X592990Y355733D01*
X596351Y357125D01*
X615229Y357125D01*
X618590Y355733D01*
X621163Y353160D01*
X622555Y349799D01*
X622555Y346161D01*
X621163Y342800D01*
X618590Y340227D01*
X615229Y338835D01*
X596351Y338835D01*
G37*
%LPD*%
%LPC*%
G36*
X26121Y167385D02*
X26121Y167385D01*
X22760Y168777D01*
X20187Y171350D01*
X18795Y174711D01*
X18795Y178349D01*
X20187Y181710D01*
X22760Y184283D01*
X26121Y185675D01*
X44999Y185675D01*
X48360Y184283D01*
X50933Y181710D01*
X52325Y178349D01*
X52325Y174711D01*
X50933Y171350D01*
X48360Y168777D01*
X44999Y167385D01*
X26121Y167385D01*
G37*
%LPD*%
%LPC*%
G36*
X26121Y91185D02*
X26121Y91185D01*
X22760Y92577D01*
X20187Y95150D01*
X18795Y98511D01*
X18795Y102149D01*
X20187Y105510D01*
X22760Y108083D01*
X26121Y109475D01*
X44999Y109475D01*
X48360Y108083D01*
X50933Y105510D01*
X52325Y102149D01*
X52325Y98511D01*
X50933Y95150D01*
X48360Y92577D01*
X44999Y91185D01*
X26121Y91185D01*
G37*
%LPD*%
%LPC*%
G36*
X790661Y9905D02*
X790661Y9905D01*
X787300Y11297D01*
X784727Y13870D01*
X783335Y17231D01*
X783335Y36109D01*
X784727Y39470D01*
X787300Y42043D01*
X790661Y43435D01*
X794299Y43435D01*
X797660Y42043D01*
X800233Y39470D01*
X801625Y36109D01*
X801625Y17231D01*
X800233Y13870D01*
X797660Y11297D01*
X794299Y9905D01*
X790661Y9905D01*
G37*
%LPD*%
%LPC*%
G36*
X503472Y438431D02*
X503472Y438431D01*
X500661Y441242D01*
X500661Y445218D01*
X501172Y445729D01*
X501225Y445803D01*
X501285Y445872D01*
X501297Y445902D01*
X501316Y445928D01*
X501343Y446015D01*
X501377Y446100D01*
X501381Y446141D01*
X501388Y446164D01*
X501387Y446196D01*
X501395Y446267D01*
X501395Y517743D01*
X501381Y517833D01*
X501373Y517924D01*
X501361Y517954D01*
X501356Y517986D01*
X501313Y518066D01*
X501277Y518150D01*
X501251Y518182D01*
X501240Y518203D01*
X501217Y518225D01*
X501172Y518281D01*
X499391Y520062D01*
X499391Y524038D01*
X502202Y526849D01*
X506178Y526849D01*
X508989Y524038D01*
X508989Y520062D01*
X507208Y518281D01*
X507155Y518207D01*
X507095Y518138D01*
X507083Y518108D01*
X507064Y518082D01*
X507037Y517995D01*
X507003Y517910D01*
X506999Y517869D01*
X506992Y517846D01*
X506993Y517814D01*
X506985Y517743D01*
X506985Y448790D01*
X506988Y448770D01*
X506986Y448751D01*
X507008Y448649D01*
X507024Y448547D01*
X507034Y448530D01*
X507038Y448510D01*
X507091Y448421D01*
X507140Y448330D01*
X507154Y448316D01*
X507164Y448299D01*
X507243Y448232D01*
X507279Y448198D01*
X510259Y445218D01*
X510259Y441242D01*
X507448Y438431D01*
X503472Y438431D01*
G37*
%LPD*%
%LPC*%
G36*
X679250Y320321D02*
X679250Y320321D01*
X676439Y323132D01*
X676439Y327108D01*
X679250Y329919D01*
X681769Y329919D01*
X681859Y329933D01*
X681950Y329941D01*
X681980Y329953D01*
X682012Y329958D01*
X682092Y330001D01*
X682176Y330037D01*
X682208Y330063D01*
X682229Y330074D01*
X682251Y330097D01*
X682307Y330142D01*
X686430Y334265D01*
X752613Y334265D01*
X752703Y334279D01*
X752794Y334287D01*
X752824Y334299D01*
X752856Y334304D01*
X752936Y334347D01*
X753020Y334383D01*
X753053Y334409D01*
X753073Y334420D01*
X753095Y334443D01*
X753151Y334488D01*
X754932Y336269D01*
X758908Y336269D01*
X761719Y333458D01*
X761719Y329482D01*
X758908Y326671D01*
X754932Y326671D01*
X753151Y328452D01*
X753077Y328505D01*
X753008Y328565D01*
X752978Y328577D01*
X752952Y328596D01*
X752865Y328623D01*
X752780Y328657D01*
X752739Y328661D01*
X752716Y328668D01*
X752684Y328667D01*
X752613Y328675D01*
X689061Y328675D01*
X688971Y328661D01*
X688880Y328653D01*
X688850Y328641D01*
X688818Y328636D01*
X688738Y328593D01*
X688654Y328557D01*
X688622Y328531D01*
X688601Y328520D01*
X688579Y328497D01*
X688523Y328452D01*
X686260Y326189D01*
X686207Y326115D01*
X686147Y326046D01*
X686135Y326016D01*
X686116Y325990D01*
X686089Y325903D01*
X686055Y325818D01*
X686051Y325777D01*
X686044Y325755D01*
X686045Y325722D01*
X686037Y325651D01*
X686037Y323132D01*
X683226Y320321D01*
X679250Y320321D01*
G37*
%LPD*%
%LPC*%
G36*
X667302Y378741D02*
X667302Y378741D01*
X664491Y381552D01*
X664491Y385528D01*
X667302Y388339D01*
X671278Y388339D01*
X673059Y386558D01*
X673133Y386505D01*
X673202Y386445D01*
X673232Y386433D01*
X673258Y386414D01*
X673345Y386387D01*
X673430Y386353D01*
X673471Y386349D01*
X673494Y386342D01*
X673526Y386343D01*
X673597Y386335D01*
X742453Y386335D01*
X742543Y386349D01*
X742634Y386357D01*
X742664Y386369D01*
X742696Y386374D01*
X742776Y386417D01*
X742860Y386453D01*
X742892Y386479D01*
X742913Y386490D01*
X742935Y386513D01*
X742991Y386558D01*
X744772Y388339D01*
X748748Y388339D01*
X751559Y385528D01*
X751559Y381552D01*
X748748Y378741D01*
X744772Y378741D01*
X742991Y380522D01*
X742917Y380575D01*
X742848Y380635D01*
X742818Y380647D01*
X742792Y380666D01*
X742705Y380693D01*
X742620Y380727D01*
X742579Y380731D01*
X742556Y380738D01*
X742524Y380737D01*
X742453Y380745D01*
X673597Y380745D01*
X673507Y380731D01*
X673416Y380723D01*
X673386Y380711D01*
X673354Y380706D01*
X673274Y380663D01*
X673190Y380627D01*
X673158Y380601D01*
X673137Y380590D01*
X673115Y380567D01*
X673059Y380522D01*
X671278Y378741D01*
X667302Y378741D01*
G37*
%LPD*%
%LPC*%
G36*
X678732Y282221D02*
X678732Y282221D01*
X675921Y285032D01*
X675921Y289008D01*
X678732Y291819D01*
X681251Y291819D01*
X681341Y291833D01*
X681432Y291841D01*
X681462Y291853D01*
X681494Y291858D01*
X681574Y291901D01*
X681658Y291937D01*
X681690Y291963D01*
X681711Y291974D01*
X681733Y291997D01*
X681789Y292042D01*
X689722Y299975D01*
X729753Y299975D01*
X729843Y299989D01*
X729934Y299997D01*
X729964Y300009D01*
X729996Y300014D01*
X730076Y300057D01*
X730160Y300093D01*
X730192Y300119D01*
X730213Y300130D01*
X730235Y300153D01*
X730291Y300198D01*
X732072Y301979D01*
X736048Y301979D01*
X738859Y299168D01*
X738859Y295192D01*
X736048Y292381D01*
X732072Y292381D01*
X730291Y294162D01*
X730217Y294215D01*
X730148Y294275D01*
X730118Y294287D01*
X730092Y294306D01*
X730005Y294333D01*
X729920Y294367D01*
X729879Y294371D01*
X729856Y294378D01*
X729824Y294377D01*
X729753Y294385D01*
X692353Y294385D01*
X692263Y294371D01*
X692172Y294363D01*
X692142Y294351D01*
X692110Y294346D01*
X692030Y294303D01*
X691946Y294267D01*
X691914Y294241D01*
X691893Y294230D01*
X691871Y294207D01*
X691815Y294162D01*
X685742Y288089D01*
X685689Y288015D01*
X685629Y287946D01*
X685617Y287916D01*
X685598Y287890D01*
X685571Y287803D01*
X685537Y287718D01*
X685533Y287677D01*
X685526Y287655D01*
X685527Y287622D01*
X685519Y287551D01*
X685519Y285032D01*
X682708Y282221D01*
X678732Y282221D01*
G37*
%LPD*%
%LPC*%
G36*
X668572Y580671D02*
X668572Y580671D01*
X665761Y583482D01*
X665761Y587458D01*
X668572Y590269D01*
X672548Y590269D01*
X674329Y588488D01*
X674403Y588435D01*
X674472Y588375D01*
X674502Y588363D01*
X674528Y588344D01*
X674615Y588317D01*
X674700Y588283D01*
X674741Y588279D01*
X674764Y588272D01*
X674796Y588273D01*
X674867Y588265D01*
X714807Y588265D01*
X714897Y588279D01*
X714988Y588287D01*
X715018Y588299D01*
X715050Y588304D01*
X715130Y588347D01*
X715214Y588383D01*
X715246Y588409D01*
X715267Y588420D01*
X715289Y588443D01*
X715345Y588488D01*
X718878Y592021D01*
X718931Y592095D01*
X718991Y592164D01*
X719003Y592194D01*
X719022Y592220D01*
X719049Y592307D01*
X719083Y592392D01*
X719087Y592433D01*
X719094Y592455D01*
X719093Y592488D01*
X719101Y592559D01*
X719101Y595078D01*
X721912Y597889D01*
X725888Y597889D01*
X728699Y595078D01*
X728699Y591102D01*
X725888Y588291D01*
X723369Y588291D01*
X723279Y588277D01*
X723188Y588269D01*
X723158Y588257D01*
X723126Y588252D01*
X723046Y588209D01*
X722962Y588173D01*
X722930Y588147D01*
X722909Y588136D01*
X722887Y588113D01*
X722831Y588068D01*
X717438Y582675D01*
X674867Y582675D01*
X674777Y582661D01*
X674686Y582653D01*
X674656Y582641D01*
X674624Y582636D01*
X674544Y582593D01*
X674460Y582557D01*
X674428Y582531D01*
X674407Y582520D01*
X674385Y582497D01*
X674329Y582452D01*
X672548Y580671D01*
X668572Y580671D01*
G37*
%LPD*%
%LPC*%
G36*
X411638Y579881D02*
X411638Y579881D01*
X409584Y580732D01*
X408012Y582304D01*
X407161Y584358D01*
X407161Y611982D01*
X408012Y614036D01*
X409584Y615608D01*
X411638Y616459D01*
X413862Y616459D01*
X415916Y615608D01*
X417488Y614036D01*
X418339Y611982D01*
X418339Y584358D01*
X417488Y582304D01*
X415916Y580732D01*
X413862Y579881D01*
X411638Y579881D01*
G37*
%LPD*%
%LPC*%
G36*
X776708Y468725D02*
X776708Y468725D01*
X773897Y471536D01*
X773897Y475512D01*
X775678Y477293D01*
X775732Y477367D01*
X775791Y477436D01*
X775803Y477466D01*
X775822Y477492D01*
X775849Y477579D01*
X775883Y477664D01*
X775887Y477705D01*
X775894Y477727D01*
X775894Y477760D01*
X775901Y477831D01*
X775901Y515892D01*
X775898Y515912D01*
X775900Y515931D01*
X775878Y516033D01*
X775862Y516135D01*
X775852Y516152D01*
X775848Y516172D01*
X775795Y516261D01*
X775747Y516352D01*
X775732Y516366D01*
X775722Y516383D01*
X775643Y516450D01*
X775568Y516522D01*
X775550Y516530D01*
X775535Y516543D01*
X775439Y516582D01*
X775345Y516625D01*
X775325Y516627D01*
X775307Y516635D01*
X775140Y516653D01*
X772712Y516653D01*
X769901Y519464D01*
X769901Y523440D01*
X772712Y526251D01*
X776688Y526251D01*
X779499Y523440D01*
X779499Y520921D01*
X779500Y520914D01*
X779500Y520913D01*
X779501Y520906D01*
X779513Y520831D01*
X779521Y520740D01*
X779533Y520710D01*
X779538Y520678D01*
X779581Y520598D01*
X779617Y520514D01*
X779643Y520482D01*
X779654Y520461D01*
X779677Y520439D01*
X779722Y520383D01*
X781491Y518613D01*
X781491Y477831D01*
X781506Y477741D01*
X781513Y477650D01*
X781525Y477620D01*
X781531Y477588D01*
X781573Y477507D01*
X781609Y477424D01*
X781635Y477391D01*
X781646Y477371D01*
X781669Y477349D01*
X781714Y477293D01*
X783495Y475512D01*
X783495Y471536D01*
X780684Y468725D01*
X776708Y468725D01*
G37*
%LPD*%
%LPC*%
G36*
X751122Y468911D02*
X751122Y468911D01*
X748311Y471722D01*
X748311Y475698D01*
X750092Y477479D01*
X750145Y477553D01*
X750205Y477622D01*
X750217Y477652D01*
X750236Y477678D01*
X750263Y477765D01*
X750297Y477850D01*
X750301Y477891D01*
X750308Y477914D01*
X750307Y477946D01*
X750315Y478017D01*
X750315Y500268D01*
X752175Y502128D01*
X762058Y512011D01*
X762111Y512085D01*
X762171Y512154D01*
X762183Y512184D01*
X762202Y512210D01*
X762229Y512297D01*
X762263Y512382D01*
X762267Y512423D01*
X762274Y512445D01*
X762273Y512478D01*
X762281Y512549D01*
X762281Y515068D01*
X765092Y517879D01*
X769068Y517879D01*
X771879Y515068D01*
X771879Y511092D01*
X769068Y508281D01*
X766549Y508281D01*
X766459Y508267D01*
X766368Y508259D01*
X766338Y508247D01*
X766306Y508242D01*
X766225Y508199D01*
X766142Y508163D01*
X766109Y508137D01*
X766089Y508126D01*
X766067Y508103D01*
X766011Y508058D01*
X756128Y498175D01*
X756075Y498101D01*
X756015Y498032D01*
X756003Y498002D01*
X755984Y497976D01*
X755957Y497889D01*
X755923Y497804D01*
X755919Y497763D01*
X755912Y497741D01*
X755913Y497708D01*
X755905Y497637D01*
X755905Y478017D01*
X755919Y477927D01*
X755927Y477836D01*
X755939Y477806D01*
X755944Y477774D01*
X755987Y477694D01*
X756023Y477610D01*
X756049Y477577D01*
X756060Y477557D01*
X756083Y477535D01*
X756128Y477479D01*
X757909Y475698D01*
X757909Y471722D01*
X755098Y468911D01*
X751122Y468911D01*
G37*
%LPD*%
%LPC*%
G36*
X196132Y552731D02*
X196132Y552731D01*
X193321Y555542D01*
X193321Y559518D01*
X195102Y561299D01*
X195155Y561373D01*
X195215Y561442D01*
X195227Y561472D01*
X195246Y561498D01*
X195273Y561585D01*
X195307Y561670D01*
X195311Y561711D01*
X195318Y561734D01*
X195317Y561766D01*
X195325Y561837D01*
X195325Y588783D01*
X195311Y588873D01*
X195303Y588964D01*
X195291Y588994D01*
X195286Y589026D01*
X195243Y589106D01*
X195207Y589190D01*
X195181Y589222D01*
X195170Y589243D01*
X195147Y589265D01*
X195102Y589321D01*
X193321Y591102D01*
X193321Y595078D01*
X196132Y597889D01*
X200108Y597889D01*
X202919Y595078D01*
X202919Y591102D01*
X201138Y589321D01*
X201085Y589247D01*
X201025Y589178D01*
X201013Y589148D01*
X200994Y589122D01*
X200967Y589035D01*
X200933Y588950D01*
X200929Y588909D01*
X200922Y588886D01*
X200923Y588854D01*
X200915Y588783D01*
X200915Y561837D01*
X200929Y561747D01*
X200937Y561656D01*
X200949Y561626D01*
X200954Y561594D01*
X200997Y561514D01*
X201033Y561430D01*
X201059Y561398D01*
X201070Y561377D01*
X201093Y561355D01*
X201138Y561299D01*
X202919Y559518D01*
X202919Y555542D01*
X200108Y552731D01*
X196132Y552731D01*
G37*
%LPD*%
%LPC*%
G36*
X373932Y465101D02*
X373932Y465101D01*
X371121Y467912D01*
X371121Y471888D01*
X373932Y474699D01*
X377908Y474699D01*
X379689Y472918D01*
X379763Y472865D01*
X379832Y472805D01*
X379862Y472793D01*
X379888Y472774D01*
X379975Y472747D01*
X380060Y472713D01*
X380101Y472709D01*
X380124Y472702D01*
X380156Y472703D01*
X380227Y472695D01*
X405903Y472695D01*
X405993Y472709D01*
X406084Y472717D01*
X406114Y472729D01*
X406146Y472734D01*
X406226Y472777D01*
X406310Y472813D01*
X406342Y472839D01*
X406363Y472850D01*
X406385Y472873D01*
X406441Y472918D01*
X408222Y474699D01*
X412198Y474699D01*
X415009Y471888D01*
X415009Y467912D01*
X412198Y465101D01*
X408222Y465101D01*
X406441Y466882D01*
X406367Y466935D01*
X406298Y466995D01*
X406268Y467007D01*
X406242Y467026D01*
X406155Y467053D01*
X406070Y467087D01*
X406029Y467091D01*
X406006Y467098D01*
X405974Y467097D01*
X405903Y467105D01*
X380227Y467105D01*
X380137Y467091D01*
X380046Y467083D01*
X380016Y467071D01*
X379984Y467066D01*
X379904Y467023D01*
X379820Y466987D01*
X379788Y466961D01*
X379767Y466950D01*
X379745Y466927D01*
X379689Y466882D01*
X377908Y465101D01*
X373932Y465101D01*
G37*
%LPD*%
%LPC*%
G36*
X371392Y510493D02*
X371392Y510493D01*
X368581Y513304D01*
X368581Y517280D01*
X370362Y519061D01*
X370415Y519135D01*
X370475Y519204D01*
X370487Y519234D01*
X370506Y519260D01*
X370533Y519347D01*
X370567Y519432D01*
X370571Y519473D01*
X370578Y519496D01*
X370577Y519528D01*
X370585Y519599D01*
X370585Y523121D01*
X370571Y523211D01*
X370563Y523302D01*
X370551Y523332D01*
X370546Y523364D01*
X370503Y523444D01*
X370467Y523528D01*
X370441Y523560D01*
X370430Y523581D01*
X370407Y523603D01*
X370362Y523659D01*
X368581Y525440D01*
X368581Y529416D01*
X371392Y532227D01*
X375368Y532227D01*
X378179Y529416D01*
X378179Y525440D01*
X376398Y523659D01*
X376345Y523585D01*
X376285Y523516D01*
X376273Y523486D01*
X376254Y523460D01*
X376227Y523373D01*
X376193Y523288D01*
X376189Y523247D01*
X376182Y523224D01*
X376183Y523192D01*
X376175Y523121D01*
X376175Y519599D01*
X376189Y519509D01*
X376197Y519418D01*
X376209Y519388D01*
X376214Y519356D01*
X376257Y519276D01*
X376293Y519192D01*
X376319Y519160D01*
X376330Y519139D01*
X376353Y519117D01*
X376398Y519061D01*
X378179Y517280D01*
X378179Y513304D01*
X375368Y510493D01*
X371392Y510493D01*
G37*
%LPD*%
%LPC*%
G36*
X768603Y28193D02*
X768603Y28193D01*
X768603Y44336D01*
X769459Y44201D01*
X770980Y43706D01*
X772405Y42980D01*
X773699Y42040D01*
X774830Y40909D01*
X775770Y39615D01*
X776496Y38190D01*
X776991Y36669D01*
X777241Y35090D01*
X777241Y28193D01*
X768603Y28193D01*
G37*
%LPD*%
%LPC*%
G36*
X37083Y76453D02*
X37083Y76453D01*
X37083Y85091D01*
X43980Y85091D01*
X45559Y84841D01*
X47080Y84346D01*
X48505Y83620D01*
X49799Y82680D01*
X50930Y81549D01*
X51870Y80255D01*
X52596Y78830D01*
X53091Y77309D01*
X53226Y76453D01*
X37083Y76453D01*
G37*
%LPD*%
%LPC*%
G36*
X17894Y76453D02*
X17894Y76453D01*
X18029Y77309D01*
X18524Y78830D01*
X19250Y80255D01*
X20190Y81549D01*
X21321Y82680D01*
X22615Y83620D01*
X24040Y84346D01*
X25561Y84841D01*
X27140Y85091D01*
X34037Y85091D01*
X34037Y76453D01*
X17894Y76453D01*
G37*
%LPD*%
%LPC*%
G36*
X768603Y25147D02*
X768603Y25147D01*
X777241Y25147D01*
X777241Y18250D01*
X776991Y16671D01*
X776496Y15150D01*
X775770Y13725D01*
X774830Y12431D01*
X773699Y11300D01*
X772405Y10360D01*
X770980Y9634D01*
X769459Y9139D01*
X768603Y9004D01*
X768603Y25147D01*
G37*
%LPD*%
%LPC*%
G36*
X37083Y64769D02*
X37083Y64769D01*
X37083Y73407D01*
X53226Y73407D01*
X53091Y72551D01*
X52596Y71030D01*
X51870Y69605D01*
X50930Y68311D01*
X49799Y67180D01*
X48505Y66240D01*
X47080Y65514D01*
X45559Y65019D01*
X43980Y64769D01*
X37083Y64769D01*
G37*
%LPD*%
%LPC*%
G36*
X27140Y64769D02*
X27140Y64769D01*
X25561Y65019D01*
X24040Y65514D01*
X22615Y66240D01*
X21321Y67180D01*
X20190Y68311D01*
X19250Y69605D01*
X18524Y71030D01*
X18029Y72551D01*
X17894Y73407D01*
X34037Y73407D01*
X34037Y64769D01*
X27140Y64769D01*
G37*
%LPD*%
%LPC*%
G36*
X764701Y9139D02*
X764701Y9139D01*
X763180Y9634D01*
X761755Y10360D01*
X760461Y11300D01*
X759330Y12431D01*
X758390Y13725D01*
X757664Y15150D01*
X757169Y16671D01*
X756919Y18250D01*
X756919Y25147D01*
X765557Y25147D01*
X765557Y9004D01*
X764701Y9139D01*
G37*
%LPD*%
%LPC*%
G36*
X34543Y297833D02*
X34543Y297833D01*
X34543Y306235D01*
X35371Y306104D01*
X36874Y305615D01*
X38283Y304898D01*
X39561Y303969D01*
X40679Y302851D01*
X41608Y301573D01*
X42325Y300164D01*
X42814Y298661D01*
X42945Y297833D01*
X34543Y297833D01*
G37*
%LPD*%
%LPC*%
G36*
X34543Y294787D02*
X34543Y294787D01*
X42945Y294787D01*
X42814Y293959D01*
X42325Y292456D01*
X41608Y291047D01*
X40679Y289769D01*
X39561Y288651D01*
X38283Y287722D01*
X36874Y287005D01*
X35371Y286516D01*
X34543Y286385D01*
X34543Y294787D01*
G37*
%LPD*%
%LPC*%
G36*
X23095Y297833D02*
X23095Y297833D01*
X23226Y298661D01*
X23715Y300164D01*
X24432Y301573D01*
X25361Y302851D01*
X26479Y303969D01*
X27757Y304898D01*
X29166Y305615D01*
X30669Y306104D01*
X31497Y306235D01*
X31497Y297833D01*
X23095Y297833D01*
G37*
%LPD*%
%LPC*%
G36*
X30669Y286516D02*
X30669Y286516D01*
X29166Y287005D01*
X27757Y287722D01*
X26479Y288651D01*
X25361Y289769D01*
X24432Y291047D01*
X23715Y292456D01*
X23226Y293959D01*
X23095Y294787D01*
X31497Y294787D01*
X31497Y286385D01*
X30669Y286516D01*
G37*
%LPD*%
%LPC*%
G36*
X767079Y26669D02*
X767079Y26669D01*
X767079Y26671D01*
X767081Y26671D01*
X767081Y26669D01*
X767079Y26669D01*
G37*
%LPD*%
%LPC*%
G36*
X35559Y74929D02*
X35559Y74929D01*
X35559Y74931D01*
X35561Y74931D01*
X35561Y74929D01*
X35559Y74929D01*
G37*
%LPD*%
%LPC*%
G36*
X33019Y296309D02*
X33019Y296309D01*
X33019Y296311D01*
X33021Y296311D01*
X33021Y296309D01*
X33019Y296309D01*
G37*
%LPD*%
D10*
X792480Y34290D02*
X792480Y19050D01*
X767080Y19050D02*
X767080Y34290D01*
X741680Y34290D02*
X741680Y19050D01*
X716280Y19050D02*
X716280Y34290D01*
X43180Y176530D02*
X27940Y176530D01*
X27940Y151130D02*
X43180Y151130D01*
X43180Y125730D02*
X27940Y125730D01*
X27940Y100330D02*
X43180Y100330D01*
X43180Y74930D02*
X27940Y74930D01*
X598170Y297180D02*
X613410Y297180D01*
X613410Y322580D02*
X598170Y322580D01*
X598170Y347980D02*
X613410Y347980D01*
D11*
X33020Y321310D03*
X33020Y296310D03*
D12*
X876300Y279400D03*
X822960Y316230D03*
X928370Y525780D03*
X840740Y426720D03*
X829310Y359410D03*
X960120Y367030D03*
X816610Y214630D03*
X796290Y72390D03*
X745490Y115570D03*
X726440Y786130D03*
X533400Y346710D03*
X433070Y260350D03*
X259080Y346710D03*
X228600Y233680D03*
X71120Y284480D03*
X283210Y97790D03*
X148590Y101600D03*
X466090Y49530D03*
X656590Y539750D03*
X779780Y604520D03*
X871220Y645160D03*
X777240Y763270D03*
X800100Y698500D03*
X817880Y680720D03*
X834390Y680720D03*
X850900Y697230D03*
X850900Y713740D03*
X831850Y730250D03*
X800100Y715010D03*
X819150Y730250D03*
X180340Y499110D03*
X309880Y496570D03*
X637540Y764540D03*
X599440Y548640D03*
X331470Y633730D03*
X438150Y515620D03*
X402590Y722630D03*
X218440Y680720D03*
X96520Y560070D03*
X337820Y675640D03*
X87630Y392430D03*
X39370Y500380D03*
X808990Y276860D03*
D13*
X808990Y368300D01*
D12*
X808990Y368300D03*
D13*
X808990Y461010D01*
D12*
X808990Y461010D03*
D13*
X808990Y604520D01*
D12*
X808990Y604520D03*
D13*
X899160Y209550D02*
X716280Y26670D01*
D12*
X899160Y697230D03*
D13*
X899160Y209550D01*
D12*
X891540Y240030D03*
D13*
X755650Y240030D01*
X754380Y238760D01*
D12*
X754380Y238760D03*
X891540Y229146D03*
D13*
X891512Y229118D01*
X820970Y229118D01*
D12*
X820970Y229118D03*
X871220Y260350D03*
D13*
X806450Y260350D01*
X805180Y259080D01*
D12*
X805180Y259080D03*
X871220Y250190D03*
D13*
X867928Y246898D01*
X748922Y246898D01*
D12*
X748922Y246898D03*
X669290Y383540D03*
D13*
X746760Y383540D01*
D12*
X746760Y383540D03*
X676910Y355600D03*
D13*
X769620Y355600D01*
D12*
X769620Y355600D03*
X680720Y287020D03*
D13*
X690880Y297180D01*
X734060Y297180D01*
D12*
X734060Y297180D03*
X681238Y325120D03*
D13*
X687588Y331470D01*
X756920Y331470D01*
D12*
X756920Y331470D03*
X753110Y473710D03*
D13*
X753110Y499110D02*
X767080Y513080D01*
X753110Y499110D02*
X753110Y473710D01*
D12*
X767080Y513080D03*
X778696Y473524D03*
D13*
X778696Y517456D01*
X774700Y521452D01*
D12*
X774700Y521452D03*
X787400Y529590D03*
D13*
X792480Y524510D01*
X792480Y424180D01*
D12*
X792480Y424180D03*
X732790Y527050D03*
D13*
X732790Y448310D01*
D12*
X732790Y448310D03*
X685800Y143510D03*
D13*
X631190Y254000D02*
X631190Y346710D01*
X631190Y440690D01*
X631190Y706120D01*
X683260Y758190D02*
X721360Y758190D01*
X683260Y758190D02*
X631190Y706120D01*
D12*
X721360Y758190D03*
X784860Y259080D03*
D13*
X779780Y254000D01*
X631190Y254000D01*
D12*
X784860Y354330D03*
D13*
X777240Y346710D01*
X631190Y346710D01*
D12*
X784860Y448310D03*
D13*
X777240Y440690D01*
X631190Y440690D01*
X661670Y143510D02*
X685800Y143510D01*
X661670Y143510D02*
X623570Y181610D01*
X623570Y246380D01*
X631190Y254000D01*
X741680Y26670D02*
X906780Y191770D01*
D12*
X906780Y708660D03*
D13*
X906780Y430530D02*
X906780Y191770D01*
X906780Y430530D02*
X906780Y708660D01*
D12*
X906780Y430530D03*
X820420Y565150D03*
D13*
X864870Y520700D01*
X864870Y483870D01*
D12*
X864870Y483870D03*
X712470Y368300D03*
D14*
X642620Y368300D01*
D12*
X642620Y368300D03*
X712470Y462280D03*
D14*
X642620Y462280D01*
D12*
X642620Y462280D03*
X712470Y274320D03*
D14*
X642620Y274320D01*
D12*
X642620Y274320D03*
X849630Y201930D03*
D14*
X847090Y199390D01*
X642620Y199390D01*
D12*
X642620Y199390D03*
X412750Y585470D03*
D15*
X412750Y610870D01*
D12*
X412750Y610870D03*
X256540Y610870D03*
D15*
X369570Y610870D01*
D12*
X369570Y610870D03*
X859790Y201930D03*
D14*
X859790Y193040D01*
X854710Y187960D01*
D12*
X632460Y187960D03*
D14*
X854710Y187960D01*
D12*
X892810Y770890D03*
D13*
X824230Y770890D01*
X779780Y726440D01*
X670560Y726440D01*
D12*
X670560Y726440D03*
X892810Y758190D03*
X670560Y716280D03*
D13*
X782320Y716280D01*
X824230Y758190D02*
X892810Y758190D01*
X824230Y758190D02*
X782320Y716280D01*
D12*
X914400Y715010D03*
X670560Y706120D03*
D13*
X880110Y749300D02*
X914400Y715010D01*
X781050Y706120D02*
X670560Y706120D01*
X824230Y749300D02*
X880110Y749300D01*
X824230Y749300D02*
X781050Y706120D01*
D12*
X891540Y675640D03*
D13*
X861060Y706120D01*
D12*
X670560Y695960D03*
D13*
X789940Y706120D02*
X861060Y706120D01*
X789940Y706120D02*
X779780Y695960D01*
X670560Y695960D01*
D12*
X891540Y661670D03*
D13*
X878840Y674370D01*
X786130Y674370D01*
X774700Y685800D01*
D12*
X670560Y685800D03*
D13*
X774700Y685800D01*
D12*
X412750Y687070D03*
D13*
X619760Y687070D01*
X621030Y685800D01*
D12*
X621030Y685800D03*
X891540Y647700D03*
X670560Y675640D03*
D13*
X869950Y669290D02*
X891540Y647700D01*
X869950Y669290D02*
X781050Y669290D01*
X774700Y675640D01*
X670560Y675640D01*
D12*
X412750Y674370D03*
D13*
X414020Y675640D01*
X621030Y675640D01*
D12*
X621030Y675640D03*
X723900Y643890D03*
D13*
X716280Y636270D01*
X670560Y636270D01*
D12*
X670560Y636270D03*
X412750Y636270D03*
D13*
X621030Y636270D01*
D12*
X621030Y636270D03*
X723900Y631190D03*
D13*
X716280Y623570D01*
X670560Y623570D01*
D12*
X670560Y623570D03*
X502920Y610870D03*
D13*
X554990Y610870D01*
X554990Y623570D01*
X621030Y623570D01*
D12*
X621030Y623570D03*
X723900Y618490D03*
D13*
X716280Y610870D01*
X670560Y610870D01*
D12*
X670560Y610870D03*
X889000Y596900D03*
X670560Y664210D03*
D13*
X821690Y664210D02*
X889000Y596900D01*
X821690Y664210D02*
X670560Y664210D01*
D12*
X412750Y661670D03*
D13*
X414020Y662940D01*
X621030Y662940D01*
D12*
X621030Y662940D03*
X890270Y567690D03*
X670560Y652780D03*
D13*
X805180Y652780D01*
X890270Y567690D01*
D12*
X412750Y648970D03*
D13*
X414020Y650240D01*
X621030Y650240D01*
D12*
X621030Y650240D03*
X723900Y593090D03*
D13*
X716280Y585470D01*
X670560Y585470D01*
D12*
X670560Y585470D03*
D15*
X605790Y321310D02*
X33020Y321310D01*
X605790Y321310D02*
X605790Y322580D01*
D12*
X605790Y128270D03*
D15*
X605790Y297180D01*
D12*
X605790Y461010D03*
D13*
X605790Y422910D01*
X582930Y422910D01*
X582930Y370840D01*
X203200Y370840D01*
D12*
X203200Y370840D03*
X144780Y72108D03*
D13*
X144780Y40640D01*
X250190Y40640D01*
D12*
X250190Y40640D03*
X200660Y72390D03*
D13*
X330200Y72390D01*
X330200Y68580D01*
D12*
X330200Y68580D03*
X114300Y179070D03*
D13*
X114300Y162560D01*
X59690Y162560D01*
D12*
X59690Y148590D03*
D13*
X59690Y162560D01*
D12*
X87630Y132080D03*
D13*
X519430Y132080D01*
X519430Y116840D01*
X556260Y116840D01*
D12*
X556260Y116840D03*
X551180Y303530D03*
D16*
X551180Y274320D01*
X523240Y274320D01*
X523240Y207010D01*
D12*
X523240Y207010D03*
X325120Y219710D03*
D15*
X325120Y302260D01*
D12*
X325120Y302260D03*
X246380Y126012D03*
D16*
X213360Y126012D01*
D12*
X213360Y126012D03*
X198120Y593090D03*
D13*
X198120Y557530D01*
D12*
X198120Y557530D03*
X504190Y522050D03*
D13*
X504190Y443230D01*
X505460Y443230D01*
D12*
X505460Y443230D03*
X373380Y527428D03*
D13*
X373380Y515292D01*
D12*
X373380Y515292D03*
X375920Y469900D03*
D13*
X410210Y469900D01*
D12*
X410210Y469900D03*
X450850Y572770D03*
D13*
X450850Y628650D01*
D12*
X450850Y628650D03*
X576580Y581660D03*
D13*
X576580Y496570D01*
D12*
X576580Y496570D03*
X144780Y593090D03*
D13*
X144780Y424180D01*
D12*
X144780Y424180D03*
X500380Y730250D03*
D13*
X627098Y642338D02*
X627098Y630202D01*
X500380Y693138D02*
X500380Y730250D01*
X500380Y693138D02*
X406682Y693138D01*
X406682Y642338D02*
X627098Y642338D01*
X627098Y630202D02*
X496852Y630202D01*
X496852Y581660D01*
X576580Y581660D01*
X406682Y642338D02*
X406682Y693138D01*
M02*
