G04 EAGLE Gerber RS-274X export*
G75*
%MOMM*%
%FSLAX34Y34*%
%LPD*%
%INSoldermask Top*%
%IPPOS*%
%AMOC8*
5,1,8,0,0,1.08239X$1,22.5*%
G01*
%ADD10C,3.603200*%
%ADD11R,1.503200X1.703200*%
%ADD12C,1.727200*%
%ADD13R,1.703200X1.503200*%
%ADD14R,1.403200X2.703200*%
%ADD15R,2.203200X1.703200*%
%ADD16R,1.703200X1.103200*%
%ADD17R,1.103200X1.103200*%
%ADD18R,0.803200X1.503200*%
%ADD19R,1.403200X0.553200*%
%ADD20R,1.103200X2.203200*%
%ADD21R,1.503200X2.203200*%
%ADD22R,11.103200X9.303200*%
%ADD23R,1.253200X2.703200*%
%ADD24R,1.303200X1.003200*%
%ADD25R,2.903200X1.803200*%
%ADD26R,1.553200X0.473200*%
%ADD27R,1.983200X0.653200*%
%ADD28R,3.053200X1.603200*%
%ADD29R,1.103200X1.003200*%
%ADD30R,3.503200X1.393200*%
%ADD31R,2.003200X1.803200*%
%ADD32R,3.003200X2.203200*%
%ADD33R,1.003200X1.103200*%
%ADD34R,2.573200X2.633200*%
%ADD35R,1.203200X1.303200*%
%ADD36R,1.303200X1.203200*%
%ADD37R,2.203200X1.923200*%
%ADD38C,1.703200*%
%ADD39R,7.703200X2.703200*%
%ADD40R,2.603200X1.003200*%
%ADD41R,2.703200X1.003200*%
%ADD42R,2.803200X1.803200*%
%ADD43R,1.803200X1.503200*%
%ADD44R,1.503200X1.803200*%
%ADD45R,1.103200X0.903200*%
%ADD46R,1.353200X1.603200*%


D10*
X970000Y770000D03*
X970000Y30000D03*
X30000Y770000D03*
X30000Y30000D03*
D11*
X702970Y92710D03*
X721970Y92710D03*
D12*
X792480Y34290D02*
X792480Y19050D01*
X767080Y19050D02*
X767080Y34290D01*
X741680Y34290D02*
X741680Y19050D01*
X716280Y19050D02*
X716280Y34290D01*
D13*
X773430Y158090D03*
X773430Y139090D03*
X957580Y537820D03*
X957580Y518820D03*
X717550Y155550D03*
X717550Y136550D03*
D14*
X890270Y52950D03*
X865270Y52950D03*
X840270Y52950D03*
X890270Y107950D03*
X865270Y107950D03*
X840270Y107950D03*
D15*
X906780Y160020D03*
X824780Y160020D03*
D16*
X753110Y783590D03*
X753110Y770890D03*
X753110Y758190D03*
X753110Y745490D03*
X753110Y732790D03*
X753110Y720090D03*
X753110Y707390D03*
X753110Y694690D03*
X753110Y681990D03*
X753110Y669290D03*
X753110Y656590D03*
X753110Y643890D03*
X753110Y631190D03*
X753110Y618490D03*
X753110Y605790D03*
X753110Y593090D03*
X753110Y580390D03*
X753110Y567690D03*
X753110Y554990D03*
D17*
X811610Y719590D03*
X825610Y719590D03*
X839610Y719590D03*
X811610Y705590D03*
X825610Y705590D03*
X839610Y705590D03*
X811610Y691590D03*
X825610Y691590D03*
X839610Y691590D03*
D16*
X928110Y783590D03*
X928110Y770890D03*
X928110Y758190D03*
X928110Y745490D03*
X928110Y732790D03*
X928110Y720090D03*
X928110Y707390D03*
X928110Y694690D03*
X928110Y681990D03*
X928110Y669290D03*
X928110Y656590D03*
X928110Y643890D03*
X928110Y631190D03*
X928110Y618490D03*
X928110Y605790D03*
X928110Y593090D03*
X928110Y580390D03*
X928110Y567690D03*
X928110Y554990D03*
D18*
X721360Y314960D03*
X734060Y314960D03*
X746760Y314960D03*
X759460Y314960D03*
X772160Y314960D03*
X784860Y314960D03*
X797560Y314960D03*
X797560Y367960D03*
X784860Y367960D03*
X772160Y367960D03*
X759460Y367960D03*
X746760Y367960D03*
X734060Y367960D03*
X721360Y367960D03*
X721360Y408940D03*
X734060Y408940D03*
X746760Y408940D03*
X759460Y408940D03*
X772160Y408940D03*
X784860Y408940D03*
X797560Y408940D03*
X797560Y461940D03*
X784860Y461940D03*
X772160Y461940D03*
X759460Y461940D03*
X746760Y461940D03*
X734060Y461940D03*
X721360Y461940D03*
X721360Y220980D03*
X734060Y220980D03*
X746760Y220980D03*
X759460Y220980D03*
X772160Y220980D03*
X784860Y220980D03*
X797560Y220980D03*
X797560Y273980D03*
X784860Y273980D03*
X772160Y273980D03*
X759460Y273980D03*
X746760Y273980D03*
X734060Y273980D03*
X721360Y273980D03*
D19*
X923290Y275590D03*
X923290Y295590D03*
X923290Y305590D03*
X923290Y315590D03*
X923290Y325590D03*
X923290Y335590D03*
X923290Y345590D03*
X923290Y355590D03*
X923290Y365590D03*
X923290Y375590D03*
X923290Y385590D03*
X923290Y395590D03*
X923290Y405590D03*
X923290Y415590D03*
X923290Y425590D03*
X923290Y435590D03*
X923290Y445590D03*
X923290Y455590D03*
X923290Y465590D03*
X923290Y285590D03*
X892790Y280590D03*
X892790Y300590D03*
X892790Y310590D03*
X892790Y320590D03*
X892790Y330590D03*
X892790Y340590D03*
X892790Y350590D03*
X892790Y360590D03*
X892790Y370590D03*
X892790Y380590D03*
X892790Y390590D03*
X892790Y400590D03*
X892790Y410590D03*
X892790Y420590D03*
X892790Y430590D03*
X892790Y440590D03*
X892790Y450590D03*
X892790Y460590D03*
X892790Y470590D03*
X892790Y290590D03*
D13*
X115570Y473050D03*
X115570Y454050D03*
X87630Y454050D03*
X87630Y473050D03*
X41910Y454050D03*
X41910Y473050D03*
D11*
X133960Y407670D03*
X114960Y407670D03*
D13*
X582930Y441350D03*
X582930Y460350D03*
D20*
X59720Y409350D03*
D21*
X45720Y365350D03*
D20*
X31720Y409350D03*
D22*
X149860Y259080D03*
D23*
X183860Y358080D03*
X166860Y358080D03*
X115860Y358080D03*
X149860Y358080D03*
X132860Y358080D03*
D13*
X100330Y33680D03*
X100330Y52680D03*
D11*
X214020Y142240D03*
X233020Y142240D03*
X95860Y179070D03*
X76860Y179070D03*
D13*
X604520Y112370D03*
X604520Y93370D03*
X68580Y52680D03*
X68580Y33680D03*
D11*
X214020Y21590D03*
X233020Y21590D03*
X536600Y137160D03*
X555600Y137160D03*
X403200Y149860D03*
X384200Y149860D03*
X234340Y187960D03*
X253340Y187960D03*
D13*
X488950Y207670D03*
X488950Y226670D03*
D11*
X504850Y303530D03*
X523850Y303530D03*
X343510Y148590D03*
X324510Y148590D03*
D13*
X605790Y386740D03*
X605790Y405740D03*
X450850Y207670D03*
X450850Y226670D03*
D11*
X435000Y149860D03*
X454000Y149860D03*
X578460Y218440D03*
X559460Y218440D03*
X578460Y187960D03*
X559460Y187960D03*
D12*
X43180Y176530D02*
X27940Y176530D01*
X27940Y151130D02*
X43180Y151130D01*
X43180Y125730D02*
X27940Y125730D01*
X27940Y100330D02*
X43180Y100330D01*
X43180Y74930D02*
X27940Y74930D01*
D24*
X278130Y284480D03*
X278130Y253480D03*
D25*
X35560Y209520D03*
X35560Y237520D03*
D12*
X598170Y297180D02*
X613410Y297180D01*
X613410Y322580D02*
X598170Y322580D01*
X598170Y347980D02*
X613410Y347980D01*
D26*
X115950Y152080D03*
X115950Y147080D03*
X115950Y142080D03*
X115950Y137080D03*
X76550Y152080D03*
X76550Y147080D03*
X76550Y142080D03*
X76550Y137080D03*
X115950Y132080D03*
X76550Y132080D03*
D27*
X384420Y203700D03*
X384520Y195700D03*
X384420Y187700D03*
X384320Y179700D03*
X324320Y179700D03*
X324320Y187700D03*
X324420Y195700D03*
X324320Y203700D03*
D28*
X384810Y219710D03*
X384810Y253710D03*
D29*
X297490Y203250D03*
X297490Y222250D03*
X277490Y212750D03*
D30*
X425450Y304800D03*
X425450Y355600D03*
X361450Y330700D03*
D31*
X557530Y386050D03*
X557530Y414050D03*
D32*
X179070Y452120D03*
X179070Y407120D03*
D29*
X265760Y40590D03*
X265760Y21590D03*
X285760Y31090D03*
D33*
X330150Y40940D03*
X311150Y40940D03*
X320650Y20940D03*
D28*
X394970Y20320D03*
X394970Y54320D03*
D34*
X394970Y92710D03*
X332570Y92710D03*
D35*
X144780Y51680D03*
X144780Y34680D03*
D36*
X75320Y83820D03*
X92320Y83820D03*
D30*
X537210Y81280D03*
X537210Y30480D03*
X601210Y55380D03*
D37*
X171450Y50800D03*
X213450Y50800D03*
D38*
X33020Y321310D03*
X33020Y296310D03*
D39*
X554990Y730250D03*
X554990Y782250D03*
D40*
X482510Y496450D03*
X482510Y509350D03*
X482510Y522050D03*
X482510Y534750D03*
X482510Y547450D03*
X482510Y560150D03*
X482510Y572850D03*
X482510Y585550D03*
X482510Y598250D03*
X482510Y610950D03*
X482510Y623650D03*
X482510Y636350D03*
X482510Y649050D03*
X482510Y661750D03*
X482510Y674450D03*
X482510Y687650D03*
D41*
X394510Y687650D03*
X394510Y674450D03*
X394510Y661750D03*
X394510Y649050D03*
X394510Y636350D03*
X394510Y623650D03*
X394510Y610950D03*
X394510Y598250D03*
X394510Y585550D03*
X394510Y572850D03*
X394510Y560150D03*
X394510Y547450D03*
X394510Y534750D03*
X394510Y522050D03*
X394510Y509350D03*
X394510Y496450D03*
D42*
X234120Y611880D03*
X198120Y611880D03*
D28*
X554990Y581660D03*
X554990Y547660D03*
D13*
X233680Y521360D03*
X233680Y540360D03*
D43*
X482600Y443390D03*
X482600Y463390D03*
D44*
X326550Y441960D03*
X346550Y441960D03*
D11*
X296520Y572770D03*
X277520Y572770D03*
D13*
X233680Y489560D03*
X233680Y470560D03*
D11*
X252070Y441960D03*
X233070Y441960D03*
D45*
X233680Y585620D03*
X233680Y572620D03*
D46*
X445520Y463960D03*
X445520Y441960D03*
X429520Y441960D03*
X429520Y463960D03*
D44*
X374810Y441960D03*
X394810Y441960D03*
D43*
X276860Y633890D03*
X276860Y653890D03*
X144780Y613570D03*
X144780Y633570D03*
D44*
X144940Y670560D03*
X164940Y670560D03*
D45*
X111760Y626260D03*
X111760Y613260D03*
D44*
X280830Y441960D03*
X300830Y441960D03*
D11*
X134010Y541020D03*
X153010Y541020D03*
D28*
X482600Y781050D03*
X482600Y747050D03*
M02*
