M48
;GenerationSoftware,Autodesk,EAGLE,9.6.2*%
;CreationDate,2022-03-22T16:52:02Z*%
FMAT,2
ICI,OFF
METRIC,TZ,000.000
T4C0.350
T3C1.000
T2C1.016
T1C3.400
%
G90
M71
T1
X3000Y3000
X3000Y77000
X97000Y3000
X97000Y77000
T2
X60579Y34798
X60579Y32258
X60579Y29718
X3556Y7493
X3556Y10033
X3556Y12573
X3556Y15113
X3556Y17653
X71628Y2667
X74168Y2667
X76708Y2667
X79248Y2667
T3
X3302Y29631
X3302Y32131
T4
X65659Y53975
X77978Y60452
X87122Y64516
X77724Y76327
X80010Y69850
X81788Y68072
X83439Y68072
X85090Y69723
X85090Y71374
X83185Y73025
X80010Y71501
X81915Y73025
X18034Y49911
X30988Y49657
X63754Y76454
X59944Y54864
X33147Y63373
X43815Y51562
X40259Y72263
X21844Y68072
X9652Y56007
X33782Y67564
X8763Y39243
X3937Y50038
X80899Y27686
X80899Y36830
X80899Y46101
X80899Y60452
X89916Y69723
X89154Y24003
X75438Y23876
X89154Y22915
X82097Y22912
X87122Y26035
X80518Y25908
X87122Y25019
X74892Y24690
X66929Y38354
X74676Y38354
X67691Y35560
X76962Y35560
X68072Y28702
X73406Y29718
X68124Y32512
X75692Y33147
X75311Y47371
X76708Y51308
X77870Y47352
X77470Y52145
X78740Y52959
X79248Y42418
X73279Y52705
X73279Y44831
X68580Y14351
X72136Y75819
X78486Y25908
X78486Y35433
X78486Y44831
X90678Y70866
X90678Y43053
X82042Y56515
X86487Y48387
X71247Y36830
X64262Y36830
X71247Y46228
X64262Y46228
X71247Y27432
X64262Y27432
X84963Y20193
X64262Y19939
X41275Y58547
X41275Y61087
X87630Y27940
X36957Y61087
X85979Y20193
X63246Y18796
X89281Y77089
X67056Y72644
X89281Y75819
X67056Y71628
X91440Y71501
X67056Y70612
X89154Y67564
X67056Y69596
X89154Y66167
X67056Y68580
X41275Y68707
X62103Y68580
X89154Y64770
X67056Y67564
X41275Y67437
X62103Y67564
X72390Y64389
X67056Y63627
X41275Y63627
X62103Y63627
X72390Y63119
X67056Y62357
X50292Y61087
X62103Y62357
X72390Y61849
X67056Y61087
X88900Y59690
X67056Y66421
X41275Y66167
X62103Y66294
X89027Y56769
X67056Y65278
X41275Y64897
X62103Y65024
X72390Y59309
X67056Y58547
X60579Y12827
X60579Y46101
X20320Y37084
X14478Y7211
X25019Y4064
X20066Y7239
X33020Y6858
X11430Y17907
X5969Y14859
X8763Y13208
X55626Y11684
X55118Y30353
X52324Y20701
X32512Y21971
X32512Y30226
X24638Y12601
X21336Y12601
X19812Y59309
X19812Y55753
X50419Y52205
X50546Y44323
X37338Y52743
X37338Y51529
X37592Y46990
X41021Y46990
X45085Y57277
X45085Y62865
X57658Y58166
X57658Y49657
X14478Y59309
X14478Y42418
X50038Y73025
X46609Y4953
X14859Y10160
X28321Y9779
X7112Y28448
X22860Y23368
X25908Y34671
X43307Y26035
X53340Y34671
X72644Y78613
X74549Y11557
X79629Y7239
X81661Y21463
X96012Y36703
X82931Y35941
X84074Y42672
X92837Y52578
X82296Y31623
X25654Y61087
M30